<?xml version="1.0" encoding="UTF-8" standalone="no"?>
<!DOCTYPE svg PUBLIC "-//W3C//DTD SVG 1.1//EN"
 "http://www.w3.org/Graphics/SVG/1.1/DTD/svg11.dtd">
<!-- Generated by graphviz version 2.43.0 (0)
 -->
<!-- Title: DUMP Pages: 1 -->
<svg width="1709pt" height="167pt"
 viewBox="0.00 0.00 1709.00 167.00" xmlns="http://www.w3.org/2000/svg" xmlns:xlink="http://www.w3.org/1999/xlink">
<g id="graph0" class="graph" transform="scale(1 1) rotate(0) translate(4 163)">
<title>DUMP</title>
<polygon fill="white" stroke="transparent" points="-4,4 -4,-163 1705,-163 1705,4 -4,4"/>
<!-- index_0 -->
<g id="node1" class="node">
<title>index_0</title>
<path fill="lightgreen" stroke="black" d="M12,-0.5C12,-0.5 145,-0.5 145,-0.5 151,-0.5 157,-6.5 157,-12.5 157,-12.5 157,-57.5 157,-57.5 157,-63.5 151,-69.5 145,-69.5 145,-69.5 12,-69.5 12,-69.5 6,-69.5 0,-63.5 0,-57.5 0,-57.5 0,-12.5 0,-12.5 0,-6.5 6,-0.5 12,-0.5"/>
<text text-anchor="middle" x="78.5" y="-54.3" font-family="Times,serif" font-size="14.00">index_0</text>
<polyline fill="none" stroke="black" points="0,-46.5 157,-46.5 "/>
<text text-anchor="middle" x="78.5" y="-31.3" font-family="Times,serif" font-size="14.00">data = 44252</text>
<polyline fill="none" stroke="black" points="0,-23.5 157,-23.5 "/>
<text text-anchor="middle" x="39" y="-8.3" font-family="Times,serif" font-size="14.00">next = 0</text>
<polyline fill="none" stroke="black" points="78,-0.5 78,-23.5 "/>
<text text-anchor="middle" x="117.5" y="-8.3" font-family="Times,serif" font-size="14.00">prev = 0</text>
</g>
<!-- index_1 -->
<g id="node2" class="node">
<title>index_1</title>
<path fill="lightcoral" stroke="black" d="M1556,-26.5C1556,-26.5 1689,-26.5 1689,-26.5 1695,-26.5 1701,-32.5 1701,-38.5 1701,-38.5 1701,-83.5 1701,-83.5 1701,-89.5 1695,-95.5 1689,-95.5 1689,-95.5 1556,-95.5 1556,-95.5 1550,-95.5 1544,-89.5 1544,-83.5 1544,-83.5 1544,-38.5 1544,-38.5 1544,-32.5 1550,-26.5 1556,-26.5"/>
<text text-anchor="middle" x="1622.5" y="-80.3" font-family="Times,serif" font-size="14.00">index_1</text>
<polyline fill="none" stroke="black" points="1544,-72.5 1701,-72.5 "/>
<text text-anchor="middle" x="1622.5" y="-57.3" font-family="Times,serif" font-size="14.00">data = 12246509</text>
<polyline fill="none" stroke="black" points="1544,-49.5 1701,-49.5 "/>
<text text-anchor="middle" x="1583" y="-34.3" font-family="Times,serif" font-size="14.00">next = 2</text>
<polyline fill="none" stroke="black" points="1622,-26.5 1622,-49.5 "/>
<text text-anchor="middle" x="1661.5" y="-34.3" font-family="Times,serif" font-size="14.00">prev = 0</text>
</g>
<!-- index_1&#45;&gt;index_0 -->
<g id="edge2" class="edge">
<title>index_1:p&#45;&gt;index_0:h</title>
<path fill="none" stroke="lightgrey" stroke-width="2" stroke-dasharray="5,2" d="M1661.5,-25C1661.5,27.22 1596.21,-24.76 1544,-26 1407.71,-29.25 1373.83,-38 1237.5,-38 1237.5,-38 1237.5,-38 463.5,-38 398.44,-38 240.97,-56.17 167.25,-57.87"/>
<polygon fill="lightgrey" stroke="lightgrey" stroke-width="2" points="166.96,-54.38 157,-58 167.04,-61.38 166.96,-54.38"/>
</g>
<!-- index_2 -->
<g id="node3" class="node">
<title>index_2</title>
<path fill="lightcoral" stroke="black" d="M1363,-69.5C1363,-69.5 1496,-69.5 1496,-69.5 1502,-69.5 1508,-75.5 1508,-81.5 1508,-81.5 1508,-126.5 1508,-126.5 1508,-132.5 1502,-138.5 1496,-138.5 1496,-138.5 1363,-138.5 1363,-138.5 1357,-138.5 1351,-132.5 1351,-126.5 1351,-126.5 1351,-81.5 1351,-81.5 1351,-75.5 1357,-69.5 1363,-69.5"/>
<text text-anchor="middle" x="1429.5" y="-123.3" font-family="Times,serif" font-size="14.00">index_2</text>
<polyline fill="none" stroke="black" points="1351,-115.5 1508,-115.5 "/>
<text text-anchor="middle" x="1429.5" y="-100.3" font-family="Times,serif" font-size="14.00">data = 12246509</text>
<polyline fill="none" stroke="black" points="1351,-92.5 1508,-92.5 "/>
<text text-anchor="middle" x="1390" y="-77.3" font-family="Times,serif" font-size="14.00">next = 3</text>
<polyline fill="none" stroke="black" points="1429,-69.5 1429,-92.5 "/>
<text text-anchor="middle" x="1468.5" y="-77.3" font-family="Times,serif" font-size="14.00">prev = 1</text>
</g>
<!-- index_1&#45;&gt;index_2 -->
<g id="edge1" class="edge">
<title>index_1:n&#45;&gt;index_2:h</title>
<path fill="none" stroke="magenta" stroke-width="2" d="M1544,-38C1505.5,-38 1541.91,-110.47 1518.04,-124.62"/>
<polygon fill="magenta" stroke="magenta" stroke-width="2" points="1516.92,-121.29 1508,-127 1518.54,-128.1 1516.92,-121.29"/>
</g>
<!-- index_2&#45;&gt;index_1 -->
<g id="edge4" class="edge">
<title>index_2:p&#45;&gt;index_1:h</title>
<path fill="none" stroke="lightgrey" stroke-width="2" stroke-dasharray="5,2" d="M1508,-81C1520.04,-81 1525.24,-82.69 1533.86,-83.53"/>
<polygon fill="lightgrey" stroke="lightgrey" stroke-width="2" points="1533.85,-87.03 1544,-84 1534.17,-80.04 1533.85,-87.03"/>
</g>
<!-- index_3 -->
<g id="node4" class="node">
<title>index_3</title>
<path fill="lightcoral" stroke="black" d="M1170,-89.5C1170,-89.5 1303,-89.5 1303,-89.5 1309,-89.5 1315,-95.5 1315,-101.5 1315,-101.5 1315,-146.5 1315,-146.5 1315,-152.5 1309,-158.5 1303,-158.5 1303,-158.5 1170,-158.5 1170,-158.5 1164,-158.5 1158,-152.5 1158,-146.5 1158,-146.5 1158,-101.5 1158,-101.5 1158,-95.5 1164,-89.5 1170,-89.5"/>
<text text-anchor="middle" x="1236.5" y="-143.3" font-family="Times,serif" font-size="14.00">index_3</text>
<polyline fill="none" stroke="black" points="1158,-135.5 1315,-135.5 "/>
<text text-anchor="middle" x="1236.5" y="-120.3" font-family="Times,serif" font-size="14.00">data = 12246509</text>
<polyline fill="none" stroke="black" points="1158,-112.5 1315,-112.5 "/>
<text text-anchor="middle" x="1197" y="-97.3" font-family="Times,serif" font-size="14.00">next = 4</text>
<polyline fill="none" stroke="black" points="1236,-89.5 1236,-112.5 "/>
<text text-anchor="middle" x="1275.5" y="-97.3" font-family="Times,serif" font-size="14.00">prev = 2</text>
</g>
<!-- index_2&#45;&gt;index_3 -->
<g id="edge3" class="edge">
<title>index_2:n&#45;&gt;index_3:h</title>
<path fill="none" stroke="magenta" stroke-width="2" d="M1351,-81C1321.76,-81 1341.71,-131.53 1324.77,-144.16"/>
<polygon fill="magenta" stroke="magenta" stroke-width="2" points="1323.63,-140.85 1315,-147 1325.58,-147.57 1323.63,-140.85"/>
</g>
<!-- index_3&#45;&gt;index_2 -->
<g id="edge6" class="edge">
<title>index_3:p&#45;&gt;index_2:h</title>
<path fill="none" stroke="lightgrey" stroke-width="2" stroke-dasharray="5,2" d="M1315,-101C1330.57,-101 1331.7,-117.19 1341.17,-124.02"/>
<polygon fill="lightgrey" stroke="lightgrey" stroke-width="2" points="1340.41,-127.44 1351,-127 1342.45,-120.75 1340.41,-127.44"/>
</g>
<!-- index_4 -->
<g id="node5" class="node">
<title>index_4</title>
<path fill="lightcoral" stroke="black" d="M977,-89.5C977,-89.5 1110,-89.5 1110,-89.5 1116,-89.5 1122,-95.5 1122,-101.5 1122,-101.5 1122,-146.5 1122,-146.5 1122,-152.5 1116,-158.5 1110,-158.5 1110,-158.5 977,-158.5 977,-158.5 971,-158.5 965,-152.5 965,-146.5 965,-146.5 965,-101.5 965,-101.5 965,-95.5 971,-89.5 977,-89.5"/>
<text text-anchor="middle" x="1043.5" y="-143.3" font-family="Times,serif" font-size="14.00">index_4</text>
<polyline fill="none" stroke="black" points="965,-135.5 1122,-135.5 "/>
<text text-anchor="middle" x="1043.5" y="-120.3" font-family="Times,serif" font-size="14.00">data = 12246509</text>
<polyline fill="none" stroke="black" points="965,-112.5 1122,-112.5 "/>
<text text-anchor="middle" x="1004" y="-97.3" font-family="Times,serif" font-size="14.00">next = 5</text>
<polyline fill="none" stroke="black" points="1043,-89.5 1043,-112.5 "/>
<text text-anchor="middle" x="1082.5" y="-97.3" font-family="Times,serif" font-size="14.00">prev = 3</text>
</g>
<!-- index_3&#45;&gt;index_4 -->
<g id="edge5" class="edge">
<title>index_3:n&#45;&gt;index_4:h</title>
<path fill="none" stroke="magenta" stroke-width="2" d="M1158,-101C1136.3,-101 1143.86,-133.14 1131.77,-143.69"/>
<polygon fill="magenta" stroke="magenta" stroke-width="2" points="1130.35,-140.48 1122,-147 1132.59,-147.11 1130.35,-140.48"/>
</g>
<!-- index_4&#45;&gt;index_3 -->
<g id="edge8" class="edge">
<title>index_4:p&#45;&gt;index_3:h</title>
<path fill="none" stroke="lightgrey" stroke-width="2" stroke-dasharray="5,2" d="M1122,-101C1143.7,-101 1136.14,-133.14 1148.23,-143.69"/>
<polygon fill="lightgrey" stroke="lightgrey" stroke-width="2" points="1147.41,-147.11 1158,-147 1149.65,-140.48 1147.41,-147.11"/>
</g>
<!-- index_5 -->
<g id="node6" class="node">
<title>index_5</title>
<path fill="lightcoral" stroke="black" d="M784,-89.5C784,-89.5 917,-89.5 917,-89.5 923,-89.5 929,-95.5 929,-101.5 929,-101.5 929,-146.5 929,-146.5 929,-152.5 923,-158.5 917,-158.5 917,-158.5 784,-158.5 784,-158.5 778,-158.5 772,-152.5 772,-146.5 772,-146.5 772,-101.5 772,-101.5 772,-95.5 778,-89.5 784,-89.5"/>
<text text-anchor="middle" x="850.5" y="-143.3" font-family="Times,serif" font-size="14.00">index_5</text>
<polyline fill="none" stroke="black" points="772,-135.5 929,-135.5 "/>
<text text-anchor="middle" x="850.5" y="-120.3" font-family="Times,serif" font-size="14.00">data = 12246509</text>
<polyline fill="none" stroke="black" points="772,-112.5 929,-112.5 "/>
<text text-anchor="middle" x="811" y="-97.3" font-family="Times,serif" font-size="14.00">next = 6</text>
<polyline fill="none" stroke="black" points="850,-89.5 850,-112.5 "/>
<text text-anchor="middle" x="889.5" y="-97.3" font-family="Times,serif" font-size="14.00">prev = 4</text>
</g>
<!-- index_4&#45;&gt;index_5 -->
<g id="edge7" class="edge">
<title>index_4:n&#45;&gt;index_5:h</title>
<path fill="none" stroke="magenta" stroke-width="2" d="M965,-101C943.3,-101 950.86,-133.14 938.77,-143.69"/>
<polygon fill="magenta" stroke="magenta" stroke-width="2" points="937.35,-140.48 929,-147 939.59,-147.11 937.35,-140.48"/>
</g>
<!-- index_5&#45;&gt;index_4 -->
<g id="edge10" class="edge">
<title>index_5:p&#45;&gt;index_4:h</title>
<path fill="none" stroke="lightgrey" stroke-width="2" stroke-dasharray="5,2" d="M929,-101C950.7,-101 943.14,-133.14 955.23,-143.69"/>
<polygon fill="lightgrey" stroke="lightgrey" stroke-width="2" points="954.41,-147.11 965,-147 956.65,-140.48 954.41,-147.11"/>
</g>
<!-- index_6 -->
<g id="node7" class="node">
<title>index_6</title>
<path fill="lightcoral" stroke="black" d="M591,-89.5C591,-89.5 724,-89.5 724,-89.5 730,-89.5 736,-95.5 736,-101.5 736,-101.5 736,-146.5 736,-146.5 736,-152.5 730,-158.5 724,-158.5 724,-158.5 591,-158.5 591,-158.5 585,-158.5 579,-152.5 579,-146.5 579,-146.5 579,-101.5 579,-101.5 579,-95.5 585,-89.5 591,-89.5"/>
<text text-anchor="middle" x="657.5" y="-143.3" font-family="Times,serif" font-size="14.00">index_6</text>
<polyline fill="none" stroke="black" points="579,-135.5 736,-135.5 "/>
<text text-anchor="middle" x="657.5" y="-120.3" font-family="Times,serif" font-size="14.00">data = 12246509</text>
<polyline fill="none" stroke="black" points="579,-112.5 736,-112.5 "/>
<text text-anchor="middle" x="618" y="-97.3" font-family="Times,serif" font-size="14.00">next = 7</text>
<polyline fill="none" stroke="black" points="657,-89.5 657,-112.5 "/>
<text text-anchor="middle" x="696.5" y="-97.3" font-family="Times,serif" font-size="14.00">prev = 5</text>
</g>
<!-- index_5&#45;&gt;index_6 -->
<g id="edge9" class="edge">
<title>index_5:n&#45;&gt;index_6:h</title>
<path fill="none" stroke="magenta" stroke-width="2" d="M772,-101C750.3,-101 757.86,-133.14 745.77,-143.69"/>
<polygon fill="magenta" stroke="magenta" stroke-width="2" points="744.35,-140.48 736,-147 746.59,-147.11 744.35,-140.48"/>
</g>
<!-- index_6&#45;&gt;index_5 -->
<g id="edge12" class="edge">
<title>index_6:p&#45;&gt;index_5:h</title>
<path fill="none" stroke="lightgrey" stroke-width="2" stroke-dasharray="5,2" d="M736,-101C757.7,-101 750.14,-133.14 762.23,-143.69"/>
<polygon fill="lightgrey" stroke="lightgrey" stroke-width="2" points="761.41,-147.11 772,-147 763.65,-140.48 761.41,-147.11"/>
</g>
<!-- index_7 -->
<g id="node8" class="node">
<title>index_7</title>
<path fill="lightcoral" stroke="black" d="M398,-89.5C398,-89.5 531,-89.5 531,-89.5 537,-89.5 543,-95.5 543,-101.5 543,-101.5 543,-146.5 543,-146.5 543,-152.5 537,-158.5 531,-158.5 531,-158.5 398,-158.5 398,-158.5 392,-158.5 386,-152.5 386,-146.5 386,-146.5 386,-101.5 386,-101.5 386,-95.5 392,-89.5 398,-89.5"/>
<text text-anchor="middle" x="464.5" y="-143.3" font-family="Times,serif" font-size="14.00">index_7</text>
<polyline fill="none" stroke="black" points="386,-135.5 543,-135.5 "/>
<text text-anchor="middle" x="464.5" y="-120.3" font-family="Times,serif" font-size="14.00">data = 12246509</text>
<polyline fill="none" stroke="black" points="386,-112.5 543,-112.5 "/>
<text text-anchor="middle" x="425" y="-97.3" font-family="Times,serif" font-size="14.00">next = 8</text>
<polyline fill="none" stroke="black" points="464,-89.5 464,-112.5 "/>
<text text-anchor="middle" x="503.5" y="-97.3" font-family="Times,serif" font-size="14.00">prev = 6</text>
</g>
<!-- index_6&#45;&gt;index_7 -->
<g id="edge11" class="edge">
<title>index_6:n&#45;&gt;index_7:h</title>
<path fill="none" stroke="magenta" stroke-width="2" d="M579,-101C557.3,-101 564.86,-133.14 552.77,-143.69"/>
<polygon fill="magenta" stroke="magenta" stroke-width="2" points="551.35,-140.48 543,-147 553.59,-147.11 551.35,-140.48"/>
</g>
<!-- index_7&#45;&gt;index_6 -->
<g id="edge14" class="edge">
<title>index_7:p&#45;&gt;index_6:h</title>
<path fill="none" stroke="lightgrey" stroke-width="2" stroke-dasharray="5,2" d="M543,-101C564.7,-101 557.14,-133.14 569.23,-143.69"/>
<polygon fill="lightgrey" stroke="lightgrey" stroke-width="2" points="568.41,-147.11 579,-147 570.65,-140.48 568.41,-147.11"/>
</g>
<!-- index_8 -->
<g id="node9" class="node">
<title>index_8</title>
<path fill="lightcoral" stroke="black" d="M205,-66.5C205,-66.5 338,-66.5 338,-66.5 344,-66.5 350,-72.5 350,-78.5 350,-78.5 350,-123.5 350,-123.5 350,-129.5 344,-135.5 338,-135.5 338,-135.5 205,-135.5 205,-135.5 199,-135.5 193,-129.5 193,-123.5 193,-123.5 193,-78.5 193,-78.5 193,-72.5 199,-66.5 205,-66.5"/>
<text text-anchor="middle" x="271.5" y="-120.3" font-family="Times,serif" font-size="14.00">index_8</text>
<polyline fill="none" stroke="black" points="193,-112.5 350,-112.5 "/>
<text text-anchor="middle" x="271.5" y="-97.3" font-family="Times,serif" font-size="14.00">data = 12246509</text>
<polyline fill="none" stroke="black" points="193,-89.5 350,-89.5 "/>
<text text-anchor="middle" x="232" y="-74.3" font-family="Times,serif" font-size="14.00">next = 0</text>
<polyline fill="none" stroke="black" points="271,-66.5 271,-89.5 "/>
<text text-anchor="middle" x="310.5" y="-74.3" font-family="Times,serif" font-size="14.00">prev = 7</text>
</g>
<!-- index_7&#45;&gt;index_8 -->
<g id="edge13" class="edge">
<title>index_7:n&#45;&gt;index_8:h</title>
<path fill="none" stroke="magenta" stroke-width="2" d="M386,-101C371.17,-101 369.13,-115.04 359.89,-121.18"/>
<polygon fill="magenta" stroke="magenta" stroke-width="2" points="358.66,-117.89 350,-124 360.58,-124.62 358.66,-117.89"/>
</g>
<!-- index_8&#45;&gt;index_0 -->
<g id="edge15" class="edge">
<title>index_8:n&#45;&gt;index_0:h</title>
<path fill="none" stroke="magenta" stroke-width="2" d="M193,-78C178.84,-78 176,-66.04 166.97,-60.61"/>
<polygon fill="magenta" stroke="magenta" stroke-width="2" points="167.56,-57.15 157,-58 165.78,-63.92 167.56,-57.15"/>
</g>
<!-- index_8&#45;&gt;index_7 -->
<g id="edge16" class="edge">
<title>index_8:p&#45;&gt;index_7:h</title>
<path fill="none" stroke="lightgrey" stroke-width="2" stroke-dasharray="5,2" d="M350,-78C380.27,-78 358.65,-130.83 375.94,-144.04"/>
<polygon fill="lightgrey" stroke="lightgrey" stroke-width="2" points="375.42,-147.53 386,-147 377.4,-140.82 375.42,-147.53"/>
</g>
</g>
</svg>
