<?xml version="1.0" encoding="UTF-8" standalone="no"?>
<!DOCTYPE svg PUBLIC "-//W3C//DTD SVG 1.1//EN"
 "http://www.w3.org/Graphics/SVG/1.1/DTD/svg11.dtd">
<!-- Generated by graphviz version 2.43.0 (0)
 -->
<!-- Title: DUMP Pages: 1 -->
<svg width="1516pt" height="234pt"
 viewBox="0.00 0.00 1516.00 234.00" xmlns="http://www.w3.org/2000/svg" xmlns:xlink="http://www.w3.org/1999/xlink">
<g id="graph0" class="graph" transform="scale(1 1) rotate(0) translate(4 230)">
<title>DUMP</title>
<polygon fill="white" stroke="transparent" points="-4,4 -4,-230 1512,-230 1512,4 -4,4"/>
<!-- index_0 -->
<g id="node1" class="node">
<title>index_0</title>
<path fill="lightgreen" stroke="black" d="M12,-0.5C12,-0.5 145,-0.5 145,-0.5 151,-0.5 157,-6.5 157,-12.5 157,-12.5 157,-57.5 157,-57.5 157,-63.5 151,-69.5 145,-69.5 145,-69.5 12,-69.5 12,-69.5 6,-69.5 0,-63.5 0,-57.5 0,-57.5 0,-12.5 0,-12.5 0,-6.5 6,-0.5 12,-0.5"/>
<text text-anchor="middle" x="78.5" y="-54.3" font-family="Times,serif" font-size="14.00">index_0</text>
<polyline fill="none" stroke="black" points="0,-46.5 157,-46.5 "/>
<text text-anchor="middle" x="78.5" y="-31.3" font-family="Times,serif" font-size="14.00">data = 44252</text>
<polyline fill="none" stroke="black" points="0,-23.5 157,-23.5 "/>
<text text-anchor="middle" x="39" y="-8.3" font-family="Times,serif" font-size="14.00">next = 1</text>
<polyline fill="none" stroke="black" points="78,-0.5 78,-23.5 "/>
<text text-anchor="middle" x="117.5" y="-8.3" font-family="Times,serif" font-size="14.00">prev = 1</text>
</g>
<!-- index_1 -->
<g id="node2" class="node">
<title>index_1</title>
<path fill="lightgreen" stroke="black" d="M205,-46.5C205,-46.5 338,-46.5 338,-46.5 344,-46.5 350,-52.5 350,-58.5 350,-58.5 350,-103.5 350,-103.5 350,-109.5 344,-115.5 338,-115.5 338,-115.5 205,-115.5 205,-115.5 199,-115.5 193,-109.5 193,-103.5 193,-103.5 193,-58.5 193,-58.5 193,-52.5 199,-46.5 205,-46.5"/>
<text text-anchor="middle" x="271.5" y="-100.3" font-family="Times,serif" font-size="14.00">index_1</text>
<polyline fill="none" stroke="black" points="193,-92.5 350,-92.5 "/>
<text text-anchor="middle" x="271.5" y="-77.3" font-family="Times,serif" font-size="14.00">data = 10</text>
<polyline fill="none" stroke="black" points="193,-69.5 350,-69.5 "/>
<text text-anchor="middle" x="232" y="-54.3" font-family="Times,serif" font-size="14.00">next = 0</text>
<polyline fill="none" stroke="black" points="271,-46.5 271,-69.5 "/>
<text text-anchor="middle" x="310.5" y="-54.3" font-family="Times,serif" font-size="14.00">prev = 0</text>
</g>
<!-- index_1&#45;&gt;index_0 -->
<g id="edge1" class="edge">
<title>index_1:n&#45;&gt;index_0:h</title>
<path fill="none" stroke="magenta" stroke-width="2" d="M193,-58C181,-58 175.75,-58 167.12,-58"/>
<polygon fill="magenta" stroke="magenta" stroke-width="2" points="167,-54.5 157,-58 167,-61.5 167,-54.5"/>
</g>
<!-- index_1&#45;&gt;index_0 -->
<g id="edge2" class="edge">
<title>index_1:p&#45;&gt;index_0:h</title>
<path fill="none" stroke="lightgrey" stroke-width="2" stroke-dasharray="5,2" d="M310.5,-45C310.5,7.22 244.51,-37.42 193,-46 180.39,-48.1 175.9,-53.91 167.13,-56.6"/>
<polygon fill="lightgrey" stroke="lightgrey" stroke-width="2" points="166.43,-53.16 157,-58 167.39,-60.1 166.43,-53.16"/>
</g>
<!-- index_2 -->
<g id="node3" class="node">
<title>index_2</title>
<path fill="lightcoral" stroke="black" d="M1363,-92.5C1363,-92.5 1496,-92.5 1496,-92.5 1502,-92.5 1508,-98.5 1508,-104.5 1508,-104.5 1508,-149.5 1508,-149.5 1508,-155.5 1502,-161.5 1496,-161.5 1496,-161.5 1363,-161.5 1363,-161.5 1357,-161.5 1351,-155.5 1351,-149.5 1351,-149.5 1351,-104.5 1351,-104.5 1351,-98.5 1357,-92.5 1363,-92.5"/>
<text text-anchor="middle" x="1429.5" y="-146.3" font-family="Times,serif" font-size="14.00">index_2</text>
<polyline fill="none" stroke="black" points="1351,-138.5 1508,-138.5 "/>
<text text-anchor="middle" x="1429.5" y="-123.3" font-family="Times,serif" font-size="14.00">data = 12246509</text>
<polyline fill="none" stroke="black" points="1351,-115.5 1508,-115.5 "/>
<text text-anchor="middle" x="1390" y="-100.3" font-family="Times,serif" font-size="14.00">next = 3</text>
<polyline fill="none" stroke="black" points="1429,-92.5 1429,-115.5 "/>
<text text-anchor="middle" x="1468.5" y="-100.3" font-family="Times,serif" font-size="14.00">prev = 1</text>
</g>
<!-- index_2&#45;&gt;index_1 -->
<g id="edge4" class="edge">
<title>index_2:p&#45;&gt;index_1:h</title>
<path fill="none" stroke="lightgrey" stroke-width="2" stroke-dasharray="5,2" d="M1468.5,-91C1468.5,-38.78 1403.21,-90.76 1351,-92 1214.71,-95.25 1180.83,-104 1044.5,-104 1044.5,-104 1044.5,-104 656.5,-104 523.74,-104 488.02,-104 360.18,-104"/>
<polygon fill="lightgrey" stroke="lightgrey" stroke-width="2" points="360,-100.5 350,-104 360,-107.5 360,-100.5"/>
</g>
<!-- index_3 -->
<g id="node4" class="node">
<title>index_3</title>
<path fill="lightcoral" stroke="black" d="M1170,-135.5C1170,-135.5 1303,-135.5 1303,-135.5 1309,-135.5 1315,-141.5 1315,-147.5 1315,-147.5 1315,-192.5 1315,-192.5 1315,-198.5 1309,-204.5 1303,-204.5 1303,-204.5 1170,-204.5 1170,-204.5 1164,-204.5 1158,-198.5 1158,-192.5 1158,-192.5 1158,-147.5 1158,-147.5 1158,-141.5 1164,-135.5 1170,-135.5"/>
<text text-anchor="middle" x="1236.5" y="-189.3" font-family="Times,serif" font-size="14.00">index_3</text>
<polyline fill="none" stroke="black" points="1158,-181.5 1315,-181.5 "/>
<text text-anchor="middle" x="1236.5" y="-166.3" font-family="Times,serif" font-size="14.00">data = 12246509</text>
<polyline fill="none" stroke="black" points="1158,-158.5 1315,-158.5 "/>
<text text-anchor="middle" x="1197" y="-143.3" font-family="Times,serif" font-size="14.00">next = 4</text>
<polyline fill="none" stroke="black" points="1236,-135.5 1236,-158.5 "/>
<text text-anchor="middle" x="1275.5" y="-143.3" font-family="Times,serif" font-size="14.00">prev = 2</text>
</g>
<!-- index_2&#45;&gt;index_3 -->
<g id="edge3" class="edge">
<title>index_2:n&#45;&gt;index_3:h</title>
<path fill="none" stroke="magenta" stroke-width="2" d="M1351,-104C1312.5,-104 1348.91,-176.47 1325.04,-190.62"/>
<polygon fill="magenta" stroke="magenta" stroke-width="2" points="1323.92,-187.29 1315,-193 1325.54,-194.1 1323.92,-187.29"/>
</g>
<!-- index_3&#45;&gt;index_2 -->
<g id="edge6" class="edge">
<title>index_3:p&#45;&gt;index_2:h</title>
<path fill="none" stroke="lightgrey" stroke-width="2" stroke-dasharray="5,2" d="M1315,-147C1327.04,-147 1332.24,-148.69 1340.86,-149.53"/>
<polygon fill="lightgrey" stroke="lightgrey" stroke-width="2" points="1340.85,-153.03 1351,-150 1341.17,-146.04 1340.85,-153.03"/>
</g>
<!-- index_4 -->
<g id="node5" class="node">
<title>index_4</title>
<path fill="lightcoral" stroke="black" d="M977,-155.5C977,-155.5 1110,-155.5 1110,-155.5 1116,-155.5 1122,-161.5 1122,-167.5 1122,-167.5 1122,-212.5 1122,-212.5 1122,-218.5 1116,-224.5 1110,-224.5 1110,-224.5 977,-224.5 977,-224.5 971,-224.5 965,-218.5 965,-212.5 965,-212.5 965,-167.5 965,-167.5 965,-161.5 971,-155.5 977,-155.5"/>
<text text-anchor="middle" x="1043.5" y="-209.3" font-family="Times,serif" font-size="14.00">index_4</text>
<polyline fill="none" stroke="black" points="965,-201.5 1122,-201.5 "/>
<text text-anchor="middle" x="1043.5" y="-186.3" font-family="Times,serif" font-size="14.00">data = 12246509</text>
<polyline fill="none" stroke="black" points="965,-178.5 1122,-178.5 "/>
<text text-anchor="middle" x="1004" y="-163.3" font-family="Times,serif" font-size="14.00">next = 5</text>
<polyline fill="none" stroke="black" points="1043,-155.5 1043,-178.5 "/>
<text text-anchor="middle" x="1082.5" y="-163.3" font-family="Times,serif" font-size="14.00">prev = 3</text>
</g>
<!-- index_3&#45;&gt;index_4 -->
<g id="edge5" class="edge">
<title>index_3:n&#45;&gt;index_4:h</title>
<path fill="none" stroke="magenta" stroke-width="2" d="M1158,-147C1128.76,-147 1148.71,-197.53 1131.77,-210.16"/>
<polygon fill="magenta" stroke="magenta" stroke-width="2" points="1130.63,-206.85 1122,-213 1132.58,-213.57 1130.63,-206.85"/>
</g>
<!-- index_4&#45;&gt;index_3 -->
<g id="edge8" class="edge">
<title>index_4:p&#45;&gt;index_3:h</title>
<path fill="none" stroke="lightgrey" stroke-width="2" stroke-dasharray="5,2" d="M1122,-167C1137.57,-167 1138.7,-183.19 1148.17,-190.02"/>
<polygon fill="lightgrey" stroke="lightgrey" stroke-width="2" points="1147.41,-193.44 1158,-193 1149.45,-186.75 1147.41,-193.44"/>
</g>
<!-- index_5 -->
<g id="node6" class="node">
<title>index_5</title>
<path fill="lightcoral" stroke="black" d="M784,-155.5C784,-155.5 917,-155.5 917,-155.5 923,-155.5 929,-161.5 929,-167.5 929,-167.5 929,-212.5 929,-212.5 929,-218.5 923,-224.5 917,-224.5 917,-224.5 784,-224.5 784,-224.5 778,-224.5 772,-218.5 772,-212.5 772,-212.5 772,-167.5 772,-167.5 772,-161.5 778,-155.5 784,-155.5"/>
<text text-anchor="middle" x="850.5" y="-209.3" font-family="Times,serif" font-size="14.00">index_5</text>
<polyline fill="none" stroke="black" points="772,-201.5 929,-201.5 "/>
<text text-anchor="middle" x="850.5" y="-186.3" font-family="Times,serif" font-size="14.00">data = 12246509</text>
<polyline fill="none" stroke="black" points="772,-178.5 929,-178.5 "/>
<text text-anchor="middle" x="811" y="-163.3" font-family="Times,serif" font-size="14.00">next = 6</text>
<polyline fill="none" stroke="black" points="850,-155.5 850,-178.5 "/>
<text text-anchor="middle" x="889.5" y="-163.3" font-family="Times,serif" font-size="14.00">prev = 4</text>
</g>
<!-- index_4&#45;&gt;index_5 -->
<g id="edge7" class="edge">
<title>index_4:n&#45;&gt;index_5:h</title>
<path fill="none" stroke="magenta" stroke-width="2" d="M965,-167C943.3,-167 950.86,-199.14 938.77,-209.69"/>
<polygon fill="magenta" stroke="magenta" stroke-width="2" points="937.35,-206.48 929,-213 939.59,-213.11 937.35,-206.48"/>
</g>
<!-- index_5&#45;&gt;index_4 -->
<g id="edge10" class="edge">
<title>index_5:p&#45;&gt;index_4:h</title>
<path fill="none" stroke="lightgrey" stroke-width="2" stroke-dasharray="5,2" d="M929,-167C950.7,-167 943.14,-199.14 955.23,-209.69"/>
<polygon fill="lightgrey" stroke="lightgrey" stroke-width="2" points="954.41,-213.11 965,-213 956.65,-206.48 954.41,-213.11"/>
</g>
<!-- index_6 -->
<g id="node7" class="node">
<title>index_6</title>
<path fill="lightcoral" stroke="black" d="M591,-155.5C591,-155.5 724,-155.5 724,-155.5 730,-155.5 736,-161.5 736,-167.5 736,-167.5 736,-212.5 736,-212.5 736,-218.5 730,-224.5 724,-224.5 724,-224.5 591,-224.5 591,-224.5 585,-224.5 579,-218.5 579,-212.5 579,-212.5 579,-167.5 579,-167.5 579,-161.5 585,-155.5 591,-155.5"/>
<text text-anchor="middle" x="657.5" y="-209.3" font-family="Times,serif" font-size="14.00">index_6</text>
<polyline fill="none" stroke="black" points="579,-201.5 736,-201.5 "/>
<text text-anchor="middle" x="657.5" y="-186.3" font-family="Times,serif" font-size="14.00">data = 12246509</text>
<polyline fill="none" stroke="black" points="579,-178.5 736,-178.5 "/>
<text text-anchor="middle" x="618" y="-163.3" font-family="Times,serif" font-size="14.00">next = 7</text>
<polyline fill="none" stroke="black" points="657,-155.5 657,-178.5 "/>
<text text-anchor="middle" x="696.5" y="-163.3" font-family="Times,serif" font-size="14.00">prev = 5</text>
</g>
<!-- index_5&#45;&gt;index_6 -->
<g id="edge9" class="edge">
<title>index_5:n&#45;&gt;index_6:h</title>
<path fill="none" stroke="magenta" stroke-width="2" d="M772,-167C750.3,-167 757.86,-199.14 745.77,-209.69"/>
<polygon fill="magenta" stroke="magenta" stroke-width="2" points="744.35,-206.48 736,-213 746.59,-213.11 744.35,-206.48"/>
</g>
<!-- index_6&#45;&gt;index_5 -->
<g id="edge12" class="edge">
<title>index_6:p&#45;&gt;index_5:h</title>
<path fill="none" stroke="lightgrey" stroke-width="2" stroke-dasharray="5,2" d="M736,-167C757.7,-167 750.14,-199.14 762.23,-209.69"/>
<polygon fill="lightgrey" stroke="lightgrey" stroke-width="2" points="761.41,-213.11 772,-213 763.65,-206.48 761.41,-213.11"/>
</g>
<!-- index_7 -->
<g id="node8" class="node">
<title>index_7</title>
<path fill="lightcoral" stroke="black" d="M398,-156.5C398,-156.5 531,-156.5 531,-156.5 537,-156.5 543,-162.5 543,-168.5 543,-168.5 543,-213.5 543,-213.5 543,-219.5 537,-225.5 531,-225.5 531,-225.5 398,-225.5 398,-225.5 392,-225.5 386,-219.5 386,-213.5 386,-213.5 386,-168.5 386,-168.5 386,-162.5 392,-156.5 398,-156.5"/>
<text text-anchor="middle" x="464.5" y="-210.3" font-family="Times,serif" font-size="14.00">index_7</text>
<polyline fill="none" stroke="black" points="386,-202.5 543,-202.5 "/>
<text text-anchor="middle" x="464.5" y="-187.3" font-family="Times,serif" font-size="14.00">data = 12246509</text>
<polyline fill="none" stroke="black" points="386,-179.5 543,-179.5 "/>
<text text-anchor="middle" x="425" y="-164.3" font-family="Times,serif" font-size="14.00">next = 8</text>
<polyline fill="none" stroke="black" points="464,-156.5 464,-179.5 "/>
<text text-anchor="middle" x="503.5" y="-164.3" font-family="Times,serif" font-size="14.00">prev = 6</text>
</g>
<!-- index_6&#45;&gt;index_7 -->
<g id="edge11" class="edge">
<title>index_6:n&#45;&gt;index_7:h</title>
<path fill="none" stroke="magenta" stroke-width="2" d="M579,-167C556.8,-167 565.17,-200.46 552.52,-210.92"/>
<polygon fill="magenta" stroke="magenta" stroke-width="2" points="551.43,-207.59 543,-214 553.59,-214.25 551.43,-207.59"/>
</g>
<!-- index_7&#45;&gt;index_6 -->
<g id="edge14" class="edge">
<title>index_7:p&#45;&gt;index_6:h</title>
<path fill="none" stroke="lightgrey" stroke-width="2" stroke-dasharray="5,2" d="M543,-168C564.41,-168 557.28,-199.45 569.33,-209.76"/>
<polygon fill="lightgrey" stroke="lightgrey" stroke-width="2" points="568.41,-213.15 579,-213 570.63,-206.51 568.41,-213.15"/>
</g>
<!-- index_8 -->
<g id="node9" class="node">
<title>index_8</title>
<path fill="lightcoral" stroke="black" d="M205,-134.5C205,-134.5 338,-134.5 338,-134.5 344,-134.5 350,-140.5 350,-146.5 350,-146.5 350,-191.5 350,-191.5 350,-197.5 344,-203.5 338,-203.5 338,-203.5 205,-203.5 205,-203.5 199,-203.5 193,-197.5 193,-191.5 193,-191.5 193,-146.5 193,-146.5 193,-140.5 199,-134.5 205,-134.5"/>
<text text-anchor="middle" x="271.5" y="-188.3" font-family="Times,serif" font-size="14.00">index_8</text>
<polyline fill="none" stroke="black" points="193,-180.5 350,-180.5 "/>
<text text-anchor="middle" x="271.5" y="-165.3" font-family="Times,serif" font-size="14.00">data = 12246509</text>
<polyline fill="none" stroke="black" points="193,-157.5 350,-157.5 "/>
<text text-anchor="middle" x="232" y="-142.3" font-family="Times,serif" font-size="14.00">next = 0</text>
<polyline fill="none" stroke="black" points="271,-134.5 271,-157.5 "/>
<text text-anchor="middle" x="310.5" y="-142.3" font-family="Times,serif" font-size="14.00">prev = 7</text>
</g>
<!-- index_7&#45;&gt;index_8 -->
<g id="edge13" class="edge">
<title>index_7:n&#45;&gt;index_8:h</title>
<path fill="none" stroke="magenta" stroke-width="2" d="M386,-168C370.83,-168 369.16,-182.94 359.68,-189.25"/>
<polygon fill="magenta" stroke="magenta" stroke-width="2" points="358.66,-185.9 350,-192 360.58,-192.63 358.66,-185.9"/>
</g>
<!-- index_8&#45;&gt;index_0 -->
<g id="edge15" class="edge">
<title>index_8:n&#45;&gt;index_0:h</title>
<path fill="none" stroke="magenta" stroke-width="2" d="M193,-146C154.87,-146 190.65,-74.35 166.95,-60.35"/>
<polygon fill="magenta" stroke="magenta" stroke-width="2" points="167.54,-56.9 157,-58 165.93,-63.71 167.54,-56.9"/>
</g>
<!-- index_8&#45;&gt;index_7 -->
<g id="edge16" class="edge">
<title>index_8:p&#45;&gt;index_7:h</title>
<path fill="none" stroke="lightgrey" stroke-width="2" stroke-dasharray="5,2" d="M350,-146C379.92,-146 358.86,-198.06 376.04,-211.08"/>
<polygon fill="lightgrey" stroke="lightgrey" stroke-width="2" points="375.42,-214.54 386,-214 377.39,-207.83 375.42,-214.54"/>
</g>
</g>
</svg>
