<?xml version="1.0" encoding="UTF-8" standalone="no"?>
<!DOCTYPE svg PUBLIC "-//W3C//DTD SVG 1.1//EN"
 "http://www.w3.org/Graphics/SVG/1.1/DTD/svg11.dtd">
<!-- Generated by graphviz version 2.43.0 (0)
 -->
<!-- Title: DUMP Pages: 1 -->
<svg width="1323pt" height="253pt"
 viewBox="0.00 0.00 1323.00 253.18" xmlns="http://www.w3.org/2000/svg" xmlns:xlink="http://www.w3.org/1999/xlink">
<g id="graph0" class="graph" transform="scale(1 1) rotate(0) translate(4 249.18)">
<title>DUMP</title>
<polygon fill="white" stroke="transparent" points="-4,4 -4,-249.18 1319,-249.18 1319,4 -4,4"/>
<!-- index_0 -->
<g id="node1" class="node">
<title>index_0</title>
<path fill="lightgreen" stroke="black" d="M12,-19.68C12,-19.68 145,-19.68 145,-19.68 151,-19.68 157,-25.68 157,-31.68 157,-31.68 157,-76.68 157,-76.68 157,-82.68 151,-88.68 145,-88.68 145,-88.68 12,-88.68 12,-88.68 6,-88.68 0,-82.68 0,-76.68 0,-76.68 0,-31.68 0,-31.68 0,-25.68 6,-19.68 12,-19.68"/>
<text text-anchor="middle" x="78.5" y="-73.48" font-family="Times,serif" font-size="14.00">index_0</text>
<polyline fill="none" stroke="black" points="0,-65.68 157,-65.68 "/>
<text text-anchor="middle" x="78.5" y="-50.48" font-family="Times,serif" font-size="14.00">data = 44252</text>
<polyline fill="none" stroke="black" points="0,-42.68 157,-42.68 "/>
<text text-anchor="middle" x="39" y="-27.48" font-family="Times,serif" font-size="14.00">next = 1</text>
<polyline fill="none" stroke="black" points="78,-19.68 78,-42.68 "/>
<text text-anchor="middle" x="117.5" y="-27.48" font-family="Times,serif" font-size="14.00">prev = 2</text>
</g>
<!-- index_1 -->
<g id="node2" class="node">
<title>index_1</title>
<path fill="lightgreen" stroke="black" d="M398,-25.68C398,-25.68 531,-25.68 531,-25.68 537,-25.68 543,-31.68 543,-37.68 543,-37.68 543,-82.68 543,-82.68 543,-88.68 537,-94.68 531,-94.68 531,-94.68 398,-94.68 398,-94.68 392,-94.68 386,-88.68 386,-82.68 386,-82.68 386,-37.68 386,-37.68 386,-31.68 392,-25.68 398,-25.68"/>
<text text-anchor="middle" x="464.5" y="-79.48" font-family="Times,serif" font-size="14.00">index_1</text>
<polyline fill="none" stroke="black" points="386,-71.68 543,-71.68 "/>
<text text-anchor="middle" x="464.5" y="-56.48" font-family="Times,serif" font-size="14.00">data = 10</text>
<polyline fill="none" stroke="black" points="386,-48.68 543,-48.68 "/>
<text text-anchor="middle" x="425" y="-33.48" font-family="Times,serif" font-size="14.00">next = 2</text>
<polyline fill="none" stroke="black" points="464,-25.68 464,-48.68 "/>
<text text-anchor="middle" x="503.5" y="-33.48" font-family="Times,serif" font-size="14.00">prev = 0</text>
</g>
<!-- index_1&#45;&gt;index_0 -->
<g id="edge2" class="edge">
<title>index_1:p&#45;&gt;index_0:h</title>
<path fill="none" stroke="lightgrey" stroke-width="2" stroke-dasharray="5,2" d="M503.5,-24.18C503.5,28.05 438.04,-20.8 386,-25.18 299.43,-32.46 274.8,-26.9 193,-56.18 179.37,-61.05 176.37,-71.13 166.88,-75.3"/>
<polygon fill="lightgrey" stroke="lightgrey" stroke-width="2" points="166.17,-71.87 157,-77.18 167.48,-78.75 166.17,-71.87"/>
</g>
<!-- index_2 -->
<g id="node3" class="node">
<title>index_2</title>
<path fill="lightgreen" stroke="black" d="M205,-65.68C205,-65.68 338,-65.68 338,-65.68 344,-65.68 350,-71.68 350,-77.68 350,-77.68 350,-122.68 350,-122.68 350,-128.68 344,-134.68 338,-134.68 338,-134.68 205,-134.68 205,-134.68 199,-134.68 193,-128.68 193,-122.68 193,-122.68 193,-77.68 193,-77.68 193,-71.68 199,-65.68 205,-65.68"/>
<text text-anchor="middle" x="271.5" y="-119.48" font-family="Times,serif" font-size="14.00">index_2</text>
<polyline fill="none" stroke="black" points="193,-111.68 350,-111.68 "/>
<text text-anchor="middle" x="271.5" y="-96.48" font-family="Times,serif" font-size="14.00">data = 20</text>
<polyline fill="none" stroke="black" points="193,-88.68 350,-88.68 "/>
<text text-anchor="middle" x="232" y="-73.48" font-family="Times,serif" font-size="14.00">next = 0</text>
<polyline fill="none" stroke="black" points="271,-65.68 271,-88.68 "/>
<text text-anchor="middle" x="310.5" y="-73.48" font-family="Times,serif" font-size="14.00">prev = 1</text>
</g>
<!-- index_1&#45;&gt;index_2 -->
<g id="edge1" class="edge">
<title>index_1:n&#45;&gt;index_2:h</title>
<path fill="none" stroke="magenta" stroke-width="2" d="M386,-37.18C348.61,-37.18 383.12,-107.2 359.78,-120.88"/>
<polygon fill="magenta" stroke="magenta" stroke-width="2" points="358.93,-117.48 350,-123.18 360.54,-124.29 358.93,-117.48"/>
</g>
<!-- index_2&#45;&gt;index_0 -->
<g id="edge3" class="edge">
<title>index_2:n&#45;&gt;index_0:h</title>
<path fill="none" stroke="magenta" stroke-width="2" d="M193,-77.18C181,-77.18 175.75,-77.18 167.12,-77.18"/>
<polygon fill="magenta" stroke="magenta" stroke-width="2" points="167,-73.68 157,-77.18 167,-80.68 167,-73.68"/>
</g>
<!-- index_2&#45;&gt;index_1 -->
<g id="edge4" class="edge">
<title>index_2:p&#45;&gt;index_1:h</title>
<path fill="none" stroke="lightgrey" stroke-width="2" stroke-dasharray="5,2" d="M350,-77.18C362.17,-77.18 367.21,-80.55 375.81,-82.24"/>
<polygon fill="lightgrey" stroke="lightgrey" stroke-width="2" points="375.72,-85.75 386,-83.18 376.36,-78.77 375.72,-85.75"/>
</g>
<!-- index_3 -->
<g id="node4" class="node">
<title>index_3</title>
<path fill="lightcoral" stroke="black" d="M1170,-111.68C1170,-111.68 1303,-111.68 1303,-111.68 1309,-111.68 1315,-117.68 1315,-123.68 1315,-123.68 1315,-168.68 1315,-168.68 1315,-174.68 1309,-180.68 1303,-180.68 1303,-180.68 1170,-180.68 1170,-180.68 1164,-180.68 1158,-174.68 1158,-168.68 1158,-168.68 1158,-123.68 1158,-123.68 1158,-117.68 1164,-111.68 1170,-111.68"/>
<text text-anchor="middle" x="1236.5" y="-165.48" font-family="Times,serif" font-size="14.00">index_3</text>
<polyline fill="none" stroke="black" points="1158,-157.68 1315,-157.68 "/>
<text text-anchor="middle" x="1236.5" y="-142.48" font-family="Times,serif" font-size="14.00">data = 12246509</text>
<polyline fill="none" stroke="black" points="1158,-134.68 1315,-134.68 "/>
<text text-anchor="middle" x="1197" y="-119.48" font-family="Times,serif" font-size="14.00">next = 4</text>
<polyline fill="none" stroke="black" points="1236,-111.68 1236,-134.68 "/>
<text text-anchor="middle" x="1275.5" y="-119.48" font-family="Times,serif" font-size="14.00">prev = 2</text>
</g>
<!-- index_3&#45;&gt;index_2 -->
<g id="edge6" class="edge">
<title>index_3:p&#45;&gt;index_2:h</title>
<path fill="none" stroke="lightgrey" stroke-width="2" stroke-dasharray="5,2" d="M1275.5,-110.18C1275.5,-57.95 1210.21,-109.93 1158,-111.18 1021.71,-114.42 987.83,-123.18 851.5,-123.18 851.5,-123.18 851.5,-123.18 656.5,-123.18 523.74,-123.18 488.02,-123.18 360.18,-123.18"/>
<polygon fill="lightgrey" stroke="lightgrey" stroke-width="2" points="360,-119.68 350,-123.18 360,-126.68 360,-119.68"/>
</g>
<!-- index_4 -->
<g id="node5" class="node">
<title>index_4</title>
<path fill="lightcoral" stroke="black" d="M977,-154.68C977,-154.68 1110,-154.68 1110,-154.68 1116,-154.68 1122,-160.68 1122,-166.68 1122,-166.68 1122,-211.68 1122,-211.68 1122,-217.68 1116,-223.68 1110,-223.68 1110,-223.68 977,-223.68 977,-223.68 971,-223.68 965,-217.68 965,-211.68 965,-211.68 965,-166.68 965,-166.68 965,-160.68 971,-154.68 977,-154.68"/>
<text text-anchor="middle" x="1043.5" y="-208.48" font-family="Times,serif" font-size="14.00">index_4</text>
<polyline fill="none" stroke="black" points="965,-200.68 1122,-200.68 "/>
<text text-anchor="middle" x="1043.5" y="-185.48" font-family="Times,serif" font-size="14.00">data = 12246509</text>
<polyline fill="none" stroke="black" points="965,-177.68 1122,-177.68 "/>
<text text-anchor="middle" x="1004" y="-162.48" font-family="Times,serif" font-size="14.00">next = 5</text>
<polyline fill="none" stroke="black" points="1043,-154.68 1043,-177.68 "/>
<text text-anchor="middle" x="1082.5" y="-162.48" font-family="Times,serif" font-size="14.00">prev = 3</text>
</g>
<!-- index_3&#45;&gt;index_4 -->
<g id="edge5" class="edge">
<title>index_3:n&#45;&gt;index_4:h</title>
<path fill="none" stroke="magenta" stroke-width="2" d="M1158,-123.18C1119.5,-123.18 1155.91,-195.64 1132.04,-209.8"/>
<polygon fill="magenta" stroke="magenta" stroke-width="2" points="1130.92,-206.46 1122,-212.18 1132.54,-213.27 1130.92,-206.46"/>
</g>
<!-- index_4&#45;&gt;index_3 -->
<g id="edge8" class="edge">
<title>index_4:p&#45;&gt;index_3:h</title>
<path fill="none" stroke="lightgrey" stroke-width="2" stroke-dasharray="5,2" d="M1122,-166.18C1134.04,-166.18 1139.24,-167.86 1147.86,-168.71"/>
<polygon fill="lightgrey" stroke="lightgrey" stroke-width="2" points="1147.85,-172.21 1158,-169.18 1148.17,-165.22 1147.85,-172.21"/>
</g>
<!-- index_5 -->
<g id="node6" class="node">
<title>index_5</title>
<path fill="lightcoral" stroke="black" d="M784,-174.68C784,-174.68 917,-174.68 917,-174.68 923,-174.68 929,-180.68 929,-186.68 929,-186.68 929,-231.68 929,-231.68 929,-237.68 923,-243.68 917,-243.68 917,-243.68 784,-243.68 784,-243.68 778,-243.68 772,-237.68 772,-231.68 772,-231.68 772,-186.68 772,-186.68 772,-180.68 778,-174.68 784,-174.68"/>
<text text-anchor="middle" x="850.5" y="-228.48" font-family="Times,serif" font-size="14.00">index_5</text>
<polyline fill="none" stroke="black" points="772,-220.68 929,-220.68 "/>
<text text-anchor="middle" x="850.5" y="-205.48" font-family="Times,serif" font-size="14.00">data = 12246509</text>
<polyline fill="none" stroke="black" points="772,-197.68 929,-197.68 "/>
<text text-anchor="middle" x="811" y="-182.48" font-family="Times,serif" font-size="14.00">next = 6</text>
<polyline fill="none" stroke="black" points="850,-174.68 850,-197.68 "/>
<text text-anchor="middle" x="889.5" y="-182.48" font-family="Times,serif" font-size="14.00">prev = 4</text>
</g>
<!-- index_4&#45;&gt;index_5 -->
<g id="edge7" class="edge">
<title>index_4:n&#45;&gt;index_5:h</title>
<path fill="none" stroke="magenta" stroke-width="2" d="M965,-166.18C935.76,-166.18 955.71,-216.71 938.77,-229.34"/>
<polygon fill="magenta" stroke="magenta" stroke-width="2" points="937.63,-226.03 929,-232.18 939.58,-232.75 937.63,-226.03"/>
</g>
<!-- index_5&#45;&gt;index_4 -->
<g id="edge10" class="edge">
<title>index_5:p&#45;&gt;index_4:h</title>
<path fill="none" stroke="lightgrey" stroke-width="2" stroke-dasharray="5,2" d="M929,-186.18C944.57,-186.18 945.7,-202.36 955.17,-209.19"/>
<polygon fill="lightgrey" stroke="lightgrey" stroke-width="2" points="954.41,-212.62 965,-212.18 956.45,-205.92 954.41,-212.62"/>
</g>
<!-- index_6 -->
<g id="node7" class="node">
<title>index_6</title>
<path fill="lightcoral" stroke="black" d="M591,-174.68C591,-174.68 724,-174.68 724,-174.68 730,-174.68 736,-180.68 736,-186.68 736,-186.68 736,-231.68 736,-231.68 736,-237.68 730,-243.68 724,-243.68 724,-243.68 591,-243.68 591,-243.68 585,-243.68 579,-237.68 579,-231.68 579,-231.68 579,-186.68 579,-186.68 579,-180.68 585,-174.68 591,-174.68"/>
<text text-anchor="middle" x="657.5" y="-228.48" font-family="Times,serif" font-size="14.00">index_6</text>
<polyline fill="none" stroke="black" points="579,-220.68 736,-220.68 "/>
<text text-anchor="middle" x="657.5" y="-205.48" font-family="Times,serif" font-size="14.00">data = 12246509</text>
<polyline fill="none" stroke="black" points="579,-197.68 736,-197.68 "/>
<text text-anchor="middle" x="618" y="-182.48" font-family="Times,serif" font-size="14.00">next = 7</text>
<polyline fill="none" stroke="black" points="657,-174.68 657,-197.68 "/>
<text text-anchor="middle" x="696.5" y="-182.48" font-family="Times,serif" font-size="14.00">prev = 5</text>
</g>
<!-- index_5&#45;&gt;index_6 -->
<g id="edge9" class="edge">
<title>index_5:n&#45;&gt;index_6:h</title>
<path fill="none" stroke="magenta" stroke-width="2" d="M772,-186.18C750.3,-186.18 757.86,-218.32 745.77,-228.87"/>
<polygon fill="magenta" stroke="magenta" stroke-width="2" points="744.35,-225.65 736,-232.18 746.59,-232.28 744.35,-225.65"/>
</g>
<!-- index_6&#45;&gt;index_5 -->
<g id="edge12" class="edge">
<title>index_6:p&#45;&gt;index_5:h</title>
<path fill="none" stroke="lightgrey" stroke-width="2" stroke-dasharray="5,2" d="M736,-186.18C757.7,-186.18 750.14,-218.32 762.23,-228.87"/>
<polygon fill="lightgrey" stroke="lightgrey" stroke-width="2" points="761.41,-232.28 772,-232.18 763.65,-225.65 761.41,-232.28"/>
</g>
<!-- index_7 -->
<g id="node8" class="node">
<title>index_7</title>
<path fill="lightcoral" stroke="black" d="M398,-175.68C398,-175.68 531,-175.68 531,-175.68 537,-175.68 543,-181.68 543,-187.68 543,-187.68 543,-232.68 543,-232.68 543,-238.68 537,-244.68 531,-244.68 531,-244.68 398,-244.68 398,-244.68 392,-244.68 386,-238.68 386,-232.68 386,-232.68 386,-187.68 386,-187.68 386,-181.68 392,-175.68 398,-175.68"/>
<text text-anchor="middle" x="464.5" y="-229.48" font-family="Times,serif" font-size="14.00">index_7</text>
<polyline fill="none" stroke="black" points="386,-221.68 543,-221.68 "/>
<text text-anchor="middle" x="464.5" y="-206.48" font-family="Times,serif" font-size="14.00">data = 12246509</text>
<polyline fill="none" stroke="black" points="386,-198.68 543,-198.68 "/>
<text text-anchor="middle" x="425" y="-183.48" font-family="Times,serif" font-size="14.00">next = 8</text>
<polyline fill="none" stroke="black" points="464,-175.68 464,-198.68 "/>
<text text-anchor="middle" x="503.5" y="-183.48" font-family="Times,serif" font-size="14.00">prev = 6</text>
</g>
<!-- index_6&#45;&gt;index_7 -->
<g id="edge11" class="edge">
<title>index_6:n&#45;&gt;index_7:h</title>
<path fill="none" stroke="magenta" stroke-width="2" d="M579,-186.18C556.8,-186.18 565.17,-219.64 552.52,-230.09"/>
<polygon fill="magenta" stroke="magenta" stroke-width="2" points="551.43,-226.76 543,-233.18 553.59,-233.42 551.43,-226.76"/>
</g>
<!-- index_7&#45;&gt;index_6 -->
<g id="edge14" class="edge">
<title>index_7:p&#45;&gt;index_6:h</title>
<path fill="none" stroke="lightgrey" stroke-width="2" stroke-dasharray="5,2" d="M543,-187.18C564.41,-187.18 557.28,-218.62 569.33,-228.94"/>
<polygon fill="lightgrey" stroke="lightgrey" stroke-width="2" points="568.41,-232.32 579,-232.18 570.63,-225.68 568.41,-232.32"/>
</g>
<!-- index_8 -->
<g id="node9" class="node">
<title>index_8</title>
<path fill="lightcoral" stroke="black" d="M205,-153.68C205,-153.68 338,-153.68 338,-153.68 344,-153.68 350,-159.68 350,-165.68 350,-165.68 350,-210.68 350,-210.68 350,-216.68 344,-222.68 338,-222.68 338,-222.68 205,-222.68 205,-222.68 199,-222.68 193,-216.68 193,-210.68 193,-210.68 193,-165.68 193,-165.68 193,-159.68 199,-153.68 205,-153.68"/>
<text text-anchor="middle" x="271.5" y="-207.48" font-family="Times,serif" font-size="14.00">index_8</text>
<polyline fill="none" stroke="black" points="193,-199.68 350,-199.68 "/>
<text text-anchor="middle" x="271.5" y="-184.48" font-family="Times,serif" font-size="14.00">data = 12246509</text>
<polyline fill="none" stroke="black" points="193,-176.68 350,-176.68 "/>
<text text-anchor="middle" x="232" y="-161.48" font-family="Times,serif" font-size="14.00">next = 0</text>
<polyline fill="none" stroke="black" points="271,-153.68 271,-176.68 "/>
<text text-anchor="middle" x="310.5" y="-161.48" font-family="Times,serif" font-size="14.00">prev = 7</text>
</g>
<!-- index_7&#45;&gt;index_8 -->
<g id="edge13" class="edge">
<title>index_7:n&#45;&gt;index_8:h</title>
<path fill="none" stroke="magenta" stroke-width="2" d="M386,-187.18C370.83,-187.18 369.16,-202.12 359.68,-208.42"/>
<polygon fill="magenta" stroke="magenta" stroke-width="2" points="358.66,-205.07 350,-211.18 360.58,-211.81 358.66,-205.07"/>
</g>
<!-- index_8&#45;&gt;index_0 -->
<g id="edge15" class="edge">
<title>index_8:n&#45;&gt;index_0:h</title>
<path fill="none" stroke="magenta" stroke-width="2" d="M193,-165.18C154.87,-165.18 190.65,-93.52 166.95,-79.53"/>
<polygon fill="magenta" stroke="magenta" stroke-width="2" points="167.54,-76.07 157,-77.18 165.93,-82.88 167.54,-76.07"/>
</g>
<!-- index_8&#45;&gt;index_7 -->
<g id="edge16" class="edge">
<title>index_8:p&#45;&gt;index_7:h</title>
<path fill="none" stroke="lightgrey" stroke-width="2" stroke-dasharray="5,2" d="M350,-165.18C379.92,-165.18 358.86,-217.24 376.04,-230.25"/>
<polygon fill="lightgrey" stroke="lightgrey" stroke-width="2" points="375.42,-233.72 386,-233.18 377.39,-227 375.42,-233.72"/>
</g>
</g>
</svg>
