<?xml version="1.0" encoding="UTF-8" standalone="no"?>
<!DOCTYPE svg PUBLIC "-//W3C//DTD SVG 1.1//EN"
 "http://www.w3.org/Graphics/SVG/1.1/DTD/svg11.dtd">
<!-- Generated by graphviz version 2.43.0 (0)
 -->
<!-- Title: DUMP Pages: 1 -->
<svg width="1130pt" height="292pt"
 viewBox="0.00 0.00 1130.00 292.01" xmlns="http://www.w3.org/2000/svg" xmlns:xlink="http://www.w3.org/1999/xlink">
<g id="graph0" class="graph" transform="scale(1 1) rotate(0) translate(4 288.01)">
<title>DUMP</title>
<polygon fill="white" stroke="transparent" points="-4,4 -4,-288.01 1126,-288.01 1126,4 -4,4"/>
<!-- index_0 -->
<g id="node1" class="node">
<title>index_0</title>
<path fill="lightgreen" stroke="black" d="M12,-39.51C12,-39.51 145,-39.51 145,-39.51 151,-39.51 157,-45.51 157,-51.51 157,-51.51 157,-96.51 157,-96.51 157,-102.51 151,-108.51 145,-108.51 145,-108.51 12,-108.51 12,-108.51 6,-108.51 0,-102.51 0,-96.51 0,-96.51 0,-51.51 0,-51.51 0,-45.51 6,-39.51 12,-39.51"/>
<text text-anchor="middle" x="78.5" y="-93.31" font-family="Times,serif" font-size="14.00">index_0</text>
<polyline fill="none" stroke="black" points="0,-85.51 157,-85.51 "/>
<text text-anchor="middle" x="78.5" y="-70.31" font-family="Times,serif" font-size="14.00">data = 44252</text>
<polyline fill="none" stroke="black" points="0,-62.51 157,-62.51 "/>
<text text-anchor="middle" x="39" y="-47.31" font-family="Times,serif" font-size="14.00">next = 1</text>
<polyline fill="none" stroke="black" points="78,-39.51 78,-62.51 "/>
<text text-anchor="middle" x="117.5" y="-47.31" font-family="Times,serif" font-size="14.00">prev = 3</text>
</g>
<!-- index_1 -->
<g id="node2" class="node">
<title>index_1</title>
<path fill="lightgreen" stroke="black" d="M591,-25.51C591,-25.51 724,-25.51 724,-25.51 730,-25.51 736,-31.51 736,-37.51 736,-37.51 736,-82.51 736,-82.51 736,-88.51 730,-94.51 724,-94.51 724,-94.51 591,-94.51 591,-94.51 585,-94.51 579,-88.51 579,-82.51 579,-82.51 579,-37.51 579,-37.51 579,-31.51 585,-25.51 591,-25.51"/>
<text text-anchor="middle" x="657.5" y="-79.31" font-family="Times,serif" font-size="14.00">index_1</text>
<polyline fill="none" stroke="black" points="579,-71.51 736,-71.51 "/>
<text text-anchor="middle" x="657.5" y="-56.31" font-family="Times,serif" font-size="14.00">data = 10</text>
<polyline fill="none" stroke="black" points="579,-48.51 736,-48.51 "/>
<text text-anchor="middle" x="618" y="-33.31" font-family="Times,serif" font-size="14.00">next = 2</text>
<polyline fill="none" stroke="black" points="657,-25.51 657,-48.51 "/>
<text text-anchor="middle" x="696.5" y="-33.31" font-family="Times,serif" font-size="14.00">prev = 0</text>
</g>
<!-- index_1&#45;&gt;index_0 -->
<g id="edge2" class="edge">
<title>index_1:p&#45;&gt;index_0:h</title>
<path fill="none" stroke="lightgrey" stroke-width="2" stroke-dasharray="5,2" d="M696.5,-24.01C696.5,28.21 631.1,-21.37 579,-25.01 406.38,-37.11 356.73,-19.99 193,-76.01 179.31,-80.7 176.34,-90.88 166.87,-95.11"/>
<polygon fill="lightgrey" stroke="lightgrey" stroke-width="2" points="166.16,-91.69 157,-97.01 167.48,-98.56 166.16,-91.69"/>
</g>
<!-- index_2 -->
<g id="node3" class="node">
<title>index_2</title>
<path fill="lightgreen" stroke="black" d="M398,-65.51C398,-65.51 531,-65.51 531,-65.51 537,-65.51 543,-71.51 543,-77.51 543,-77.51 543,-122.51 543,-122.51 543,-128.51 537,-134.51 531,-134.51 531,-134.51 398,-134.51 398,-134.51 392,-134.51 386,-128.51 386,-122.51 386,-122.51 386,-77.51 386,-77.51 386,-71.51 392,-65.51 398,-65.51"/>
<text text-anchor="middle" x="464.5" y="-119.31" font-family="Times,serif" font-size="14.00">index_2</text>
<polyline fill="none" stroke="black" points="386,-111.51 543,-111.51 "/>
<text text-anchor="middle" x="464.5" y="-96.31" font-family="Times,serif" font-size="14.00">data = 20</text>
<polyline fill="none" stroke="black" points="386,-88.51 543,-88.51 "/>
<text text-anchor="middle" x="425" y="-73.31" font-family="Times,serif" font-size="14.00">next = 3</text>
<polyline fill="none" stroke="black" points="464,-65.51 464,-88.51 "/>
<text text-anchor="middle" x="503.5" y="-73.31" font-family="Times,serif" font-size="14.00">prev = 1</text>
</g>
<!-- index_1&#45;&gt;index_2 -->
<g id="edge1" class="edge">
<title>index_1:n&#45;&gt;index_2:h</title>
<path fill="none" stroke="magenta" stroke-width="2" d="M579,-37.01C541.61,-37.01 576.12,-107.04 552.78,-120.71"/>
<polygon fill="magenta" stroke="magenta" stroke-width="2" points="551.93,-117.32 543,-123.01 553.54,-124.13 551.93,-117.32"/>
</g>
<!-- index_2&#45;&gt;index_1 -->
<g id="edge4" class="edge">
<title>index_2:p&#45;&gt;index_1:h</title>
<path fill="none" stroke="lightgrey" stroke-width="2" stroke-dasharray="5,2" d="M543,-77.01C555.17,-77.01 560.21,-80.39 568.81,-82.08"/>
<polygon fill="lightgrey" stroke="lightgrey" stroke-width="2" points="568.72,-85.58 579,-83.01 569.36,-78.61 568.72,-85.58"/>
</g>
<!-- index_3 -->
<g id="node4" class="node">
<title>index_3</title>
<path fill="lightgreen" stroke="black" d="M205,-85.51C205,-85.51 338,-85.51 338,-85.51 344,-85.51 350,-91.51 350,-97.51 350,-97.51 350,-142.51 350,-142.51 350,-148.51 344,-154.51 338,-154.51 338,-154.51 205,-154.51 205,-154.51 199,-154.51 193,-148.51 193,-142.51 193,-142.51 193,-97.51 193,-97.51 193,-91.51 199,-85.51 205,-85.51"/>
<text text-anchor="middle" x="271.5" y="-139.31" font-family="Times,serif" font-size="14.00">index_3</text>
<polyline fill="none" stroke="black" points="193,-131.51 350,-131.51 "/>
<text text-anchor="middle" x="271.5" y="-116.31" font-family="Times,serif" font-size="14.00">data = 30</text>
<polyline fill="none" stroke="black" points="193,-108.51 350,-108.51 "/>
<text text-anchor="middle" x="232" y="-93.31" font-family="Times,serif" font-size="14.00">next = 0</text>
<polyline fill="none" stroke="black" points="271,-85.51 271,-108.51 "/>
<text text-anchor="middle" x="310.5" y="-93.31" font-family="Times,serif" font-size="14.00">prev = 2</text>
</g>
<!-- index_2&#45;&gt;index_3 -->
<g id="edge3" class="edge">
<title>index_2:n&#45;&gt;index_3:h</title>
<path fill="none" stroke="magenta" stroke-width="2" d="M386,-77.01C356.76,-77.01 376.71,-127.55 359.77,-140.18"/>
<polygon fill="magenta" stroke="magenta" stroke-width="2" points="358.63,-136.87 350,-143.01 360.58,-143.59 358.63,-136.87"/>
</g>
<!-- index_3&#45;&gt;index_0 -->
<g id="edge5" class="edge">
<title>index_3:n&#45;&gt;index_0:h</title>
<path fill="none" stroke="magenta" stroke-width="2" d="M193,-97.01C181,-97.01 175.75,-97.01 167.12,-97.01"/>
<polygon fill="magenta" stroke="magenta" stroke-width="2" points="167,-93.51 157,-97.01 167,-100.51 167,-93.51"/>
</g>
<!-- index_3&#45;&gt;index_2 -->
<g id="edge6" class="edge">
<title>index_3:p&#45;&gt;index_2:h</title>
<path fill="none" stroke="lightgrey" stroke-width="2" stroke-dasharray="5,2" d="M350,-97.01C365.57,-97.01 366.7,-113.2 376.17,-120.03"/>
<polygon fill="lightgrey" stroke="lightgrey" stroke-width="2" points="375.41,-123.46 386,-123.01 377.45,-116.76 375.41,-123.46"/>
</g>
<!-- index_4 -->
<g id="node5" class="node">
<title>index_4</title>
<path fill="lightcoral" stroke="black" d="M977,-151.51C977,-151.51 1110,-151.51 1110,-151.51 1116,-151.51 1122,-157.51 1122,-163.51 1122,-163.51 1122,-208.51 1122,-208.51 1122,-214.51 1116,-220.51 1110,-220.51 1110,-220.51 977,-220.51 977,-220.51 971,-220.51 965,-214.51 965,-208.51 965,-208.51 965,-163.51 965,-163.51 965,-157.51 971,-151.51 977,-151.51"/>
<text text-anchor="middle" x="1043.5" y="-205.31" font-family="Times,serif" font-size="14.00">index_4</text>
<polyline fill="none" stroke="black" points="965,-197.51 1122,-197.51 "/>
<text text-anchor="middle" x="1043.5" y="-182.31" font-family="Times,serif" font-size="14.00">data = 12246509</text>
<polyline fill="none" stroke="black" points="965,-174.51 1122,-174.51 "/>
<text text-anchor="middle" x="1004" y="-159.31" font-family="Times,serif" font-size="14.00">next = 5</text>
<polyline fill="none" stroke="black" points="1043,-151.51 1043,-174.51 "/>
<text text-anchor="middle" x="1082.5" y="-159.31" font-family="Times,serif" font-size="14.00">prev = 3</text>
</g>
<!-- index_4&#45;&gt;index_3 -->
<g id="edge8" class="edge">
<title>index_4:p&#45;&gt;index_3:h</title>
<path fill="none" stroke="lightgrey" stroke-width="2" stroke-dasharray="5,2" d="M1082.5,-150.01C1082.5,-145.18 390.84,-144.1 386,-144.01 374,-143.8 368.75,-143.34 360.13,-143.13"/>
<polygon fill="lightgrey" stroke="lightgrey" stroke-width="2" points="360.04,-139.63 350,-143.01 359.96,-146.63 360.04,-139.63"/>
</g>
<!-- index_5 -->
<g id="node6" class="node">
<title>index_5</title>
<path fill="lightcoral" stroke="black" d="M784,-194.51C784,-194.51 917,-194.51 917,-194.51 923,-194.51 929,-200.51 929,-206.51 929,-206.51 929,-251.51 929,-251.51 929,-257.51 923,-263.51 917,-263.51 917,-263.51 784,-263.51 784,-263.51 778,-263.51 772,-257.51 772,-251.51 772,-251.51 772,-206.51 772,-206.51 772,-200.51 778,-194.51 784,-194.51"/>
<text text-anchor="middle" x="850.5" y="-248.31" font-family="Times,serif" font-size="14.00">index_5</text>
<polyline fill="none" stroke="black" points="772,-240.51 929,-240.51 "/>
<text text-anchor="middle" x="850.5" y="-225.31" font-family="Times,serif" font-size="14.00">data = 12246509</text>
<polyline fill="none" stroke="black" points="772,-217.51 929,-217.51 "/>
<text text-anchor="middle" x="811" y="-202.31" font-family="Times,serif" font-size="14.00">next = 6</text>
<polyline fill="none" stroke="black" points="850,-194.51 850,-217.51 "/>
<text text-anchor="middle" x="889.5" y="-202.31" font-family="Times,serif" font-size="14.00">prev = 4</text>
</g>
<!-- index_4&#45;&gt;index_5 -->
<g id="edge7" class="edge">
<title>index_4:n&#45;&gt;index_5:h</title>
<path fill="none" stroke="magenta" stroke-width="2" d="M965,-163.01C926.5,-163.01 962.91,-235.48 939.04,-249.63"/>
<polygon fill="magenta" stroke="magenta" stroke-width="2" points="937.92,-246.3 929,-252.01 939.54,-253.11 937.92,-246.3"/>
</g>
<!-- index_5&#45;&gt;index_4 -->
<g id="edge10" class="edge">
<title>index_5:p&#45;&gt;index_4:h</title>
<path fill="none" stroke="lightgrey" stroke-width="2" stroke-dasharray="5,2" d="M929,-206.01C941.04,-206.01 946.24,-207.7 954.86,-208.55"/>
<polygon fill="lightgrey" stroke="lightgrey" stroke-width="2" points="954.85,-212.05 965,-209.01 955.17,-205.06 954.85,-212.05"/>
</g>
<!-- index_6 -->
<g id="node7" class="node">
<title>index_6</title>
<path fill="lightcoral" stroke="black" d="M591,-214.51C591,-214.51 724,-214.51 724,-214.51 730,-214.51 736,-220.51 736,-226.51 736,-226.51 736,-271.51 736,-271.51 736,-277.51 730,-283.51 724,-283.51 724,-283.51 591,-283.51 591,-283.51 585,-283.51 579,-277.51 579,-271.51 579,-271.51 579,-226.51 579,-226.51 579,-220.51 585,-214.51 591,-214.51"/>
<text text-anchor="middle" x="657.5" y="-268.31" font-family="Times,serif" font-size="14.00">index_6</text>
<polyline fill="none" stroke="black" points="579,-260.51 736,-260.51 "/>
<text text-anchor="middle" x="657.5" y="-245.31" font-family="Times,serif" font-size="14.00">data = 12246509</text>
<polyline fill="none" stroke="black" points="579,-237.51 736,-237.51 "/>
<text text-anchor="middle" x="618" y="-222.31" font-family="Times,serif" font-size="14.00">next = 7</text>
<polyline fill="none" stroke="black" points="657,-214.51 657,-237.51 "/>
<text text-anchor="middle" x="696.5" y="-222.31" font-family="Times,serif" font-size="14.00">prev = 5</text>
</g>
<!-- index_5&#45;&gt;index_6 -->
<g id="edge9" class="edge">
<title>index_5:n&#45;&gt;index_6:h</title>
<path fill="none" stroke="magenta" stroke-width="2" d="M772,-206.01C742.76,-206.01 762.71,-256.55 745.77,-269.18"/>
<polygon fill="magenta" stroke="magenta" stroke-width="2" points="744.63,-265.87 736,-272.01 746.58,-272.59 744.63,-265.87"/>
</g>
<!-- index_6&#45;&gt;index_5 -->
<g id="edge12" class="edge">
<title>index_6:p&#45;&gt;index_5:h</title>
<path fill="none" stroke="lightgrey" stroke-width="2" stroke-dasharray="5,2" d="M736,-226.01C751.57,-226.01 752.7,-242.2 762.17,-249.03"/>
<polygon fill="lightgrey" stroke="lightgrey" stroke-width="2" points="761.41,-252.46 772,-252.01 763.45,-245.76 761.41,-252.46"/>
</g>
<!-- index_7 -->
<g id="node8" class="node">
<title>index_7</title>
<path fill="lightcoral" stroke="black" d="M398,-205.51C398,-205.51 531,-205.51 531,-205.51 537,-205.51 543,-211.51 543,-217.51 543,-217.51 543,-262.51 543,-262.51 543,-268.51 537,-274.51 531,-274.51 531,-274.51 398,-274.51 398,-274.51 392,-274.51 386,-268.51 386,-262.51 386,-262.51 386,-217.51 386,-217.51 386,-211.51 392,-205.51 398,-205.51"/>
<text text-anchor="middle" x="464.5" y="-259.31" font-family="Times,serif" font-size="14.00">index_7</text>
<polyline fill="none" stroke="black" points="386,-251.51 543,-251.51 "/>
<text text-anchor="middle" x="464.5" y="-236.31" font-family="Times,serif" font-size="14.00">data = 12246509</text>
<polyline fill="none" stroke="black" points="386,-228.51 543,-228.51 "/>
<text text-anchor="middle" x="425" y="-213.31" font-family="Times,serif" font-size="14.00">next = 8</text>
<polyline fill="none" stroke="black" points="464,-205.51 464,-228.51 "/>
<text text-anchor="middle" x="503.5" y="-213.31" font-family="Times,serif" font-size="14.00">prev = 6</text>
</g>
<!-- index_6&#45;&gt;index_7 -->
<g id="edge11" class="edge">
<title>index_6:n&#45;&gt;index_7:h</title>
<path fill="none" stroke="magenta" stroke-width="2" d="M579,-226.01C560.18,-226.01 563.45,-250.91 552.57,-259.86"/>
<polygon fill="magenta" stroke="magenta" stroke-width="2" points="551.4,-256.56 543,-263.01 553.59,-263.21 551.4,-256.56"/>
</g>
<!-- index_7&#45;&gt;index_6 -->
<g id="edge14" class="edge">
<title>index_7:p&#45;&gt;index_6:h</title>
<path fill="none" stroke="lightgrey" stroke-width="2" stroke-dasharray="5,2" d="M543,-217.01C567.88,-217.01 555.31,-256.9 569.07,-268.74"/>
<polygon fill="lightgrey" stroke="lightgrey" stroke-width="2" points="568.41,-272.21 579,-272.01 570.6,-265.56 568.41,-272.21"/>
</g>
<!-- index_8 -->
<g id="node9" class="node">
<title>index_8</title>
<path fill="lightcoral" stroke="black" d="M205,-173.51C205,-173.51 338,-173.51 338,-173.51 344,-173.51 350,-179.51 350,-185.51 350,-185.51 350,-230.51 350,-230.51 350,-236.51 344,-242.51 338,-242.51 338,-242.51 205,-242.51 205,-242.51 199,-242.51 193,-236.51 193,-230.51 193,-230.51 193,-185.51 193,-185.51 193,-179.51 199,-173.51 205,-173.51"/>
<text text-anchor="middle" x="271.5" y="-227.31" font-family="Times,serif" font-size="14.00">index_8</text>
<polyline fill="none" stroke="black" points="193,-219.51 350,-219.51 "/>
<text text-anchor="middle" x="271.5" y="-204.31" font-family="Times,serif" font-size="14.00">data = 12246509</text>
<polyline fill="none" stroke="black" points="193,-196.51 350,-196.51 "/>
<text text-anchor="middle" x="232" y="-181.31" font-family="Times,serif" font-size="14.00">next = 0</text>
<polyline fill="none" stroke="black" points="271,-173.51 271,-196.51 "/>
<text text-anchor="middle" x="310.5" y="-181.31" font-family="Times,serif" font-size="14.00">prev = 7</text>
</g>
<!-- index_7&#45;&gt;index_8 -->
<g id="edge13" class="edge">
<title>index_7:n&#45;&gt;index_8:h</title>
<path fill="none" stroke="magenta" stroke-width="2" d="M386,-217.01C372.86,-217.01 368.8,-225.22 359.92,-229.07"/>
<polygon fill="magenta" stroke="magenta" stroke-width="2" points="359.14,-225.65 350,-231.01 360.49,-232.52 359.14,-225.65"/>
</g>
<!-- index_8&#45;&gt;index_0 -->
<g id="edge15" class="edge">
<title>index_8:n&#45;&gt;index_0:h</title>
<path fill="none" stroke="magenta" stroke-width="2" d="M193,-185.01C154.87,-185.01 190.65,-113.36 166.95,-99.37"/>
<polygon fill="magenta" stroke="magenta" stroke-width="2" points="167.54,-95.91 157,-97.01 165.93,-102.72 167.54,-95.91"/>
</g>
<!-- index_8&#45;&gt;index_7 -->
<g id="edge16" class="edge">
<title>index_8:p&#45;&gt;index_7:h</title>
<path fill="none" stroke="lightgrey" stroke-width="2" stroke-dasharray="5,2" d="M350,-185.01C384,-185.01 355.71,-246.89 376.09,-260.42"/>
<polygon fill="lightgrey" stroke="lightgrey" stroke-width="2" points="375.44,-263.87 386,-263.01 377.21,-257.1 375.44,-263.87"/>
</g>
</g>
</svg>
