<?xml version="1.0" encoding="UTF-8" standalone="no"?>
<!DOCTYPE svg PUBLIC "-//W3C//DTD SVG 1.1//EN"
 "http://www.w3.org/Graphics/SVG/1.1/DTD/svg11.dtd">
<!-- Generated by graphviz version 2.43.0 (0)
 -->
<!-- Title: DUMP Pages: 1 -->
<svg width="937pt" height="251pt"
 viewBox="0.00 0.00 937.00 251.00" xmlns="http://www.w3.org/2000/svg" xmlns:xlink="http://www.w3.org/1999/xlink">
<g id="graph0" class="graph" transform="scale(1 1) rotate(0) translate(4 247)">
<title>DUMP</title>
<polygon fill="white" stroke="transparent" points="-4,4 -4,-247 933,-247 933,4 -4,4"/>
<!-- index_0 -->
<g id="node1" class="node">
<title>index_0</title>
<path fill="lightgreen" stroke="black" d="M12,-64.5C12,-64.5 145,-64.5 145,-64.5 151,-64.5 157,-70.5 157,-76.5 157,-76.5 157,-121.5 157,-121.5 157,-127.5 151,-133.5 145,-133.5 145,-133.5 12,-133.5 12,-133.5 6,-133.5 0,-127.5 0,-121.5 0,-121.5 0,-76.5 0,-76.5 0,-70.5 6,-64.5 12,-64.5"/>
<text text-anchor="middle" x="78.5" y="-118.3" font-family="Times,serif" font-size="14.00">index_0</text>
<polyline fill="none" stroke="black" points="0,-110.5 157,-110.5 "/>
<text text-anchor="middle" x="78.5" y="-95.3" font-family="Times,serif" font-size="14.00">data = 44252</text>
<polyline fill="none" stroke="black" points="0,-87.5 157,-87.5 "/>
<text text-anchor="middle" x="39" y="-72.3" font-family="Times,serif" font-size="14.00">next = 1</text>
<polyline fill="none" stroke="black" points="78,-64.5 78,-87.5 "/>
<text text-anchor="middle" x="117.5" y="-72.3" font-family="Times,serif" font-size="14.00">prev = 3</text>
</g>
<!-- index_1 -->
<g id="node2" class="node">
<title>index_1</title>
<path fill="lightgreen" stroke="black" d="M784,-122.5C784,-122.5 917,-122.5 917,-122.5 923,-122.5 929,-128.5 929,-134.5 929,-134.5 929,-179.5 929,-179.5 929,-185.5 923,-191.5 917,-191.5 917,-191.5 784,-191.5 784,-191.5 778,-191.5 772,-185.5 772,-179.5 772,-179.5 772,-134.5 772,-134.5 772,-128.5 778,-122.5 784,-122.5"/>
<text text-anchor="middle" x="850.5" y="-176.3" font-family="Times,serif" font-size="14.00">index_1</text>
<polyline fill="none" stroke="black" points="772,-168.5 929,-168.5 "/>
<text text-anchor="middle" x="850.5" y="-153.3" font-family="Times,serif" font-size="14.00">data = 10</text>
<polyline fill="none" stroke="black" points="772,-145.5 929,-145.5 "/>
<text text-anchor="middle" x="811" y="-130.3" font-family="Times,serif" font-size="14.00">next = 4</text>
<polyline fill="none" stroke="black" points="850,-122.5 850,-145.5 "/>
<text text-anchor="middle" x="889.5" y="-130.3" font-family="Times,serif" font-size="14.00">prev = 0</text>
</g>
<!-- index_1&#45;&gt;index_0 -->
<g id="edge2" class="edge">
<title>index_1:p&#45;&gt;index_0:h</title>
<path fill="none" stroke="lightgrey" stroke-width="2" stroke-dasharray="5,2" d="M889.5,-121C889.5,-111.47 255.96,-120.67 167.18,-121.87"/>
<polygon fill="lightgrey" stroke="lightgrey" stroke-width="2" points="166.96,-118.38 157,-122 167.04,-125.38 166.96,-118.38"/>
</g>
<!-- index_4 -->
<g id="node3" class="node">
<title>index_4</title>
<path fill="lightgreen" stroke="black" d="M591,-150.5C591,-150.5 724,-150.5 724,-150.5 730,-150.5 736,-156.5 736,-162.5 736,-162.5 736,-207.5 736,-207.5 736,-213.5 730,-219.5 724,-219.5 724,-219.5 591,-219.5 591,-219.5 585,-219.5 579,-213.5 579,-207.5 579,-207.5 579,-162.5 579,-162.5 579,-156.5 585,-150.5 591,-150.5"/>
<text text-anchor="middle" x="657.5" y="-204.3" font-family="Times,serif" font-size="14.00">index_4</text>
<polyline fill="none" stroke="black" points="579,-196.5 736,-196.5 "/>
<text text-anchor="middle" x="657.5" y="-181.3" font-family="Times,serif" font-size="14.00">data = 40</text>
<polyline fill="none" stroke="black" points="579,-173.5 736,-173.5 "/>
<text text-anchor="middle" x="618" y="-158.3" font-family="Times,serif" font-size="14.00">next = 2</text>
<polyline fill="none" stroke="black" points="657,-150.5 657,-173.5 "/>
<text text-anchor="middle" x="696.5" y="-158.3" font-family="Times,serif" font-size="14.00">prev = 1</text>
</g>
<!-- index_1&#45;&gt;index_4 -->
<g id="edge1" class="edge">
<title>index_1:n&#45;&gt;index_4:h</title>
<path fill="none" stroke="magenta" stroke-width="2" d="M772,-134C739.57,-134 765.1,-192.18 745.81,-205.37"/>
<polygon fill="magenta" stroke="magenta" stroke-width="2" points="744.75,-202.03 736,-208 746.57,-208.79 744.75,-202.03"/>
</g>
<!-- index_4&#45;&gt;index_1 -->
<g id="edge8" class="edge">
<title>index_4:p&#45;&gt;index_1:h</title>
<path fill="none" stroke="lightgrey" stroke-width="2" stroke-dasharray="5,2" d="M736,-162C749.84,-162 753.1,-172.77 762.15,-177.65"/>
<polygon fill="lightgrey" stroke="lightgrey" stroke-width="2" points="761.46,-181.08 772,-180 763.09,-174.27 761.46,-181.08"/>
</g>
<!-- index_2 -->
<g id="node4" class="node">
<title>index_2</title>
<path fill="lightgreen" stroke="black" d="M398,-173.5C398,-173.5 531,-173.5 531,-173.5 537,-173.5 543,-179.5 543,-185.5 543,-185.5 543,-230.5 543,-230.5 543,-236.5 537,-242.5 531,-242.5 531,-242.5 398,-242.5 398,-242.5 392,-242.5 386,-236.5 386,-230.5 386,-230.5 386,-185.5 386,-185.5 386,-179.5 392,-173.5 398,-173.5"/>
<text text-anchor="middle" x="464.5" y="-227.3" font-family="Times,serif" font-size="14.00">index_2</text>
<polyline fill="none" stroke="black" points="386,-219.5 543,-219.5 "/>
<text text-anchor="middle" x="464.5" y="-204.3" font-family="Times,serif" font-size="14.00">data = 20</text>
<polyline fill="none" stroke="black" points="386,-196.5 543,-196.5 "/>
<text text-anchor="middle" x="425" y="-181.3" font-family="Times,serif" font-size="14.00">next = 3</text>
<polyline fill="none" stroke="black" points="464,-173.5 464,-196.5 "/>
<text text-anchor="middle" x="503.5" y="-181.3" font-family="Times,serif" font-size="14.00">prev = 4</text>
</g>
<!-- index_4&#45;&gt;index_2 -->
<g id="edge7" class="edge">
<title>index_4:n&#45;&gt;index_2:h</title>
<path fill="none" stroke="magenta" stroke-width="2" d="M579,-162C548.73,-162 570.35,-214.83 553.06,-228.04"/>
<polygon fill="magenta" stroke="magenta" stroke-width="2" points="551.6,-224.82 543,-231 553.58,-231.53 551.6,-224.82"/>
</g>
<!-- index_2&#45;&gt;index_4 -->
<g id="edge4" class="edge">
<title>index_2:p&#45;&gt;index_4:h</title>
<path fill="none" stroke="lightgrey" stroke-width="2" stroke-dasharray="5,2" d="M543,-185C557.83,-185 559.87,-199.04 569.11,-205.18"/>
<polygon fill="lightgrey" stroke="lightgrey" stroke-width="2" points="568.42,-208.62 579,-208 570.34,-201.89 568.42,-208.62"/>
</g>
<!-- index_3 -->
<g id="node5" class="node">
<title>index_3</title>
<path fill="lightgreen" stroke="black" d="M205,-150.5C205,-150.5 338,-150.5 338,-150.5 344,-150.5 350,-156.5 350,-162.5 350,-162.5 350,-207.5 350,-207.5 350,-213.5 344,-219.5 338,-219.5 338,-219.5 205,-219.5 205,-219.5 199,-219.5 193,-213.5 193,-207.5 193,-207.5 193,-162.5 193,-162.5 193,-156.5 199,-150.5 205,-150.5"/>
<text text-anchor="middle" x="271.5" y="-204.3" font-family="Times,serif" font-size="14.00">index_3</text>
<polyline fill="none" stroke="black" points="193,-196.5 350,-196.5 "/>
<text text-anchor="middle" x="271.5" y="-181.3" font-family="Times,serif" font-size="14.00">data = 30</text>
<polyline fill="none" stroke="black" points="193,-173.5 350,-173.5 "/>
<text text-anchor="middle" x="232" y="-158.3" font-family="Times,serif" font-size="14.00">next = 0</text>
<polyline fill="none" stroke="black" points="271,-150.5 271,-173.5 "/>
<text text-anchor="middle" x="310.5" y="-158.3" font-family="Times,serif" font-size="14.00">prev = 2</text>
</g>
<!-- index_2&#45;&gt;index_3 -->
<g id="edge3" class="edge">
<title>index_2:n&#45;&gt;index_3:h</title>
<path fill="none" stroke="magenta" stroke-width="2" d="M386,-185C371.17,-185 369.13,-199.04 359.89,-205.18"/>
<polygon fill="magenta" stroke="magenta" stroke-width="2" points="358.66,-201.89 350,-208 360.58,-208.62 358.66,-201.89"/>
</g>
<!-- index_3&#45;&gt;index_0 -->
<g id="edge5" class="edge">
<title>index_3:n&#45;&gt;index_0:h</title>
<path fill="none" stroke="magenta" stroke-width="2" d="M193,-162C173.19,-162 177.91,-134.57 166.53,-125.14"/>
<polygon fill="magenta" stroke="magenta" stroke-width="2" points="167.59,-121.8 157,-122 165.4,-128.45 167.59,-121.8"/>
</g>
<!-- index_3&#45;&gt;index_2 -->
<g id="edge6" class="edge">
<title>index_3:p&#45;&gt;index_2:h</title>
<path fill="none" stroke="lightgrey" stroke-width="2" stroke-dasharray="5,2" d="M350,-162C380.27,-162 358.65,-214.83 375.94,-228.04"/>
<polygon fill="lightgrey" stroke="lightgrey" stroke-width="2" points="375.42,-231.53 386,-231 377.4,-224.82 375.42,-231.53"/>
</g>
<!-- index_5 -->
<g id="node6" class="node">
<title>index_5</title>
<path fill="lightcoral" stroke="black" d="M784,-34.5C784,-34.5 917,-34.5 917,-34.5 923,-34.5 929,-40.5 929,-46.5 929,-46.5 929,-91.5 929,-91.5 929,-97.5 923,-103.5 917,-103.5 917,-103.5 784,-103.5 784,-103.5 778,-103.5 772,-97.5 772,-91.5 772,-91.5 772,-46.5 772,-46.5 772,-40.5 778,-34.5 784,-34.5"/>
<text text-anchor="middle" x="850.5" y="-88.3" font-family="Times,serif" font-size="14.00">index_5</text>
<polyline fill="none" stroke="black" points="772,-80.5 929,-80.5 "/>
<text text-anchor="middle" x="850.5" y="-65.3" font-family="Times,serif" font-size="14.00">data = 12246509</text>
<polyline fill="none" stroke="black" points="772,-57.5 929,-57.5 "/>
<text text-anchor="middle" x="811" y="-42.3" font-family="Times,serif" font-size="14.00">next = 6</text>
<polyline fill="none" stroke="black" points="850,-34.5 850,-57.5 "/>
<text text-anchor="middle" x="889.5" y="-42.3" font-family="Times,serif" font-size="14.00">prev = 4</text>
</g>
<!-- index_5&#45;&gt;index_4 -->
<g id="edge10" class="edge">
<title>index_5:p&#45;&gt;index_4:h</title>
<path fill="none" stroke="lightgrey" stroke-width="2" stroke-dasharray="5,2" d="M889.5,-33C889.5,19.22 812.36,-0.85 772,-34 713.96,-81.68 805.21,-196.08 746.3,-207.14"/>
<polygon fill="lightgrey" stroke="lightgrey" stroke-width="2" points="745.67,-203.68 736,-208 746.26,-210.65 745.67,-203.68"/>
</g>
<!-- index_6 -->
<g id="node7" class="node">
<title>index_6</title>
<path fill="lightcoral" stroke="black" d="M591,-0.5C591,-0.5 724,-0.5 724,-0.5 730,-0.5 736,-6.5 736,-12.5 736,-12.5 736,-57.5 736,-57.5 736,-63.5 730,-69.5 724,-69.5 724,-69.5 591,-69.5 591,-69.5 585,-69.5 579,-63.5 579,-57.5 579,-57.5 579,-12.5 579,-12.5 579,-6.5 585,-0.5 591,-0.5"/>
<text text-anchor="middle" x="657.5" y="-54.3" font-family="Times,serif" font-size="14.00">index_6</text>
<polyline fill="none" stroke="black" points="579,-46.5 736,-46.5 "/>
<text text-anchor="middle" x="657.5" y="-31.3" font-family="Times,serif" font-size="14.00">data = 12246509</text>
<polyline fill="none" stroke="black" points="579,-23.5 736,-23.5 "/>
<text text-anchor="middle" x="618" y="-8.3" font-family="Times,serif" font-size="14.00">next = 7</text>
<polyline fill="none" stroke="black" points="657,-0.5 657,-23.5 "/>
<text text-anchor="middle" x="696.5" y="-8.3" font-family="Times,serif" font-size="14.00">prev = 5</text>
</g>
<!-- index_5&#45;&gt;index_6 -->
<g id="edge9" class="edge">
<title>index_5:n&#45;&gt;index_6:h</title>
<path fill="none" stroke="magenta" stroke-width="2" d="M772,-46C759.22,-46 754.82,-52.89 746.1,-56.23"/>
<polygon fill="magenta" stroke="magenta" stroke-width="2" points="745.25,-52.83 736,-58 746.45,-59.72 745.25,-52.83"/>
</g>
<!-- index_6&#45;&gt;index_5 -->
<g id="edge12" class="edge">
<title>index_6:p&#45;&gt;index_5:h</title>
<path fill="none" stroke="lightgrey" stroke-width="2" stroke-dasharray="5,2" d="M736,-12C770.88,-12 740.96,-76.01 762.18,-89.52"/>
<polygon fill="lightgrey" stroke="lightgrey" stroke-width="2" points="761.45,-92.94 772,-92 763.16,-86.16 761.45,-92.94"/>
</g>
<!-- index_7 -->
<g id="node8" class="node">
<title>index_7</title>
<path fill="lightcoral" stroke="black" d="M398,-1.5C398,-1.5 531,-1.5 531,-1.5 537,-1.5 543,-7.5 543,-13.5 543,-13.5 543,-58.5 543,-58.5 543,-64.5 537,-70.5 531,-70.5 531,-70.5 398,-70.5 398,-70.5 392,-70.5 386,-64.5 386,-58.5 386,-58.5 386,-13.5 386,-13.5 386,-7.5 392,-1.5 398,-1.5"/>
<text text-anchor="middle" x="464.5" y="-55.3" font-family="Times,serif" font-size="14.00">index_7</text>
<polyline fill="none" stroke="black" points="386,-47.5 543,-47.5 "/>
<text text-anchor="middle" x="464.5" y="-32.3" font-family="Times,serif" font-size="14.00">data = 12246509</text>
<polyline fill="none" stroke="black" points="386,-24.5 543,-24.5 "/>
<text text-anchor="middle" x="425" y="-9.3" font-family="Times,serif" font-size="14.00">next = 8</text>
<polyline fill="none" stroke="black" points="464,-1.5 464,-24.5 "/>
<text text-anchor="middle" x="503.5" y="-9.3" font-family="Times,serif" font-size="14.00">prev = 6</text>
</g>
<!-- index_6&#45;&gt;index_7 -->
<g id="edge11" class="edge">
<title>index_6:n&#45;&gt;index_7:h</title>
<path fill="none" stroke="magenta" stroke-width="2" d="M579,-12C556.8,-12 565.17,-45.46 552.52,-55.92"/>
<polygon fill="magenta" stroke="magenta" stroke-width="2" points="551.43,-52.59 543,-59 553.59,-59.25 551.43,-52.59"/>
</g>
<!-- index_7&#45;&gt;index_6 -->
<g id="edge14" class="edge">
<title>index_7:p&#45;&gt;index_6:h</title>
<path fill="none" stroke="lightgrey" stroke-width="2" stroke-dasharray="5,2" d="M543,-13C564.41,-13 557.28,-44.45 569.33,-54.76"/>
<polygon fill="lightgrey" stroke="lightgrey" stroke-width="2" points="568.41,-58.15 579,-58 570.63,-51.51 568.41,-58.15"/>
</g>
<!-- index_8 -->
<g id="node9" class="node">
<title>index_8</title>
<path fill="lightcoral" stroke="black" d="M205,-24.5C205,-24.5 338,-24.5 338,-24.5 344,-24.5 350,-30.5 350,-36.5 350,-36.5 350,-81.5 350,-81.5 350,-87.5 344,-93.5 338,-93.5 338,-93.5 205,-93.5 205,-93.5 199,-93.5 193,-87.5 193,-81.5 193,-81.5 193,-36.5 193,-36.5 193,-30.5 199,-24.5 205,-24.5"/>
<text text-anchor="middle" x="271.5" y="-78.3" font-family="Times,serif" font-size="14.00">index_8</text>
<polyline fill="none" stroke="black" points="193,-70.5 350,-70.5 "/>
<text text-anchor="middle" x="271.5" y="-55.3" font-family="Times,serif" font-size="14.00">data = 12246509</text>
<polyline fill="none" stroke="black" points="193,-47.5 350,-47.5 "/>
<text text-anchor="middle" x="232" y="-32.3" font-family="Times,serif" font-size="14.00">next = 0</text>
<polyline fill="none" stroke="black" points="271,-24.5 271,-47.5 "/>
<text text-anchor="middle" x="310.5" y="-32.3" font-family="Times,serif" font-size="14.00">prev = 7</text>
</g>
<!-- index_7&#45;&gt;index_8 -->
<g id="edge13" class="edge">
<title>index_7:n&#45;&gt;index_8:h</title>
<path fill="none" stroke="magenta" stroke-width="2" d="M386,-13C355.73,-13 377.35,-65.83 360.06,-79.04"/>
<polygon fill="magenta" stroke="magenta" stroke-width="2" points="358.6,-75.82 350,-82 360.58,-82.53 358.6,-75.82"/>
</g>
<!-- index_8&#45;&gt;index_0 -->
<g id="edge15" class="edge">
<title>index_8:n&#45;&gt;index_0:h</title>
<path fill="none" stroke="magenta" stroke-width="2" d="M193,-36C155.61,-36 190.12,-106.02 166.78,-119.7"/>
<polygon fill="magenta" stroke="magenta" stroke-width="2" points="165.93,-116.3 157,-122 167.54,-123.12 165.93,-116.3"/>
</g>
<!-- index_8&#45;&gt;index_7 -->
<g id="edge16" class="edge">
<title>index_8:p&#45;&gt;index_7:h</title>
<path fill="none" stroke="lightgrey" stroke-width="2" stroke-dasharray="5,2" d="M350,-36C364.83,-36 366.87,-50.04 376.11,-56.18"/>
<polygon fill="lightgrey" stroke="lightgrey" stroke-width="2" points="375.42,-59.62 386,-59 377.34,-52.89 375.42,-59.62"/>
</g>
</g>
</svg>
