<?xml version="1.0" encoding="UTF-8" standalone="no"?>
<!DOCTYPE svg PUBLIC "-//W3C//DTD SVG 1.1//EN"
 "http://www.w3.org/Graphics/SVG/1.1/DTD/svg11.dtd">
<!-- Generated by graphviz version 2.43.0 (0)
 -->
<!-- Title: DUMP Pages: 1 -->
<svg width="1130pt" height="260pt"
 viewBox="0.00 0.00 1130.00 260.25" xmlns="http://www.w3.org/2000/svg" xmlns:xlink="http://www.w3.org/1999/xlink">
<g id="graph0" class="graph" transform="scale(1 1) rotate(0) translate(4 256.25)">
<title>DUMP</title>
<polygon fill="white" stroke="transparent" points="-4,4 -4,-256.25 1126,-256.25 1126,4 -4,4"/>
<!-- index_0 -->
<g id="node1" class="node">
<title>index_0</title>
<path fill="lightgreen" stroke="black" d="M12,-73.75C12,-73.75 145,-73.75 145,-73.75 151,-73.75 157,-79.75 157,-85.75 157,-85.75 157,-130.75 157,-130.75 157,-136.75 151,-142.75 145,-142.75 145,-142.75 12,-142.75 12,-142.75 6,-142.75 0,-136.75 0,-130.75 0,-130.75 0,-85.75 0,-85.75 0,-79.75 6,-73.75 12,-73.75"/>
<text text-anchor="middle" x="78.5" y="-127.55" font-family="Times,serif" font-size="14.00">index_0</text>
<polyline fill="none" stroke="black" points="0,-119.75 157,-119.75 "/>
<text text-anchor="middle" x="78.5" y="-104.55" font-family="Times,serif" font-size="14.00">data = 44252</text>
<polyline fill="none" stroke="black" points="0,-96.75 157,-96.75 "/>
<text text-anchor="middle" x="39" y="-81.55" font-family="Times,serif" font-size="14.00">next = 1</text>
<polyline fill="none" stroke="black" points="78,-73.75 78,-96.75 "/>
<text text-anchor="middle" x="117.5" y="-81.55" font-family="Times,serif" font-size="14.00">prev = 3</text>
</g>
<!-- index_1 -->
<g id="node2" class="node">
<title>index_1</title>
<path fill="lightgreen" stroke="black" d="M977,-119.75C977,-119.75 1110,-119.75 1110,-119.75 1116,-119.75 1122,-125.75 1122,-131.75 1122,-131.75 1122,-176.75 1122,-176.75 1122,-182.75 1116,-188.75 1110,-188.75 1110,-188.75 977,-188.75 977,-188.75 971,-188.75 965,-182.75 965,-176.75 965,-176.75 965,-131.75 965,-131.75 965,-125.75 971,-119.75 977,-119.75"/>
<text text-anchor="middle" x="1043.5" y="-173.55" font-family="Times,serif" font-size="14.00">index_1</text>
<polyline fill="none" stroke="black" points="965,-165.75 1122,-165.75 "/>
<text text-anchor="middle" x="1043.5" y="-150.55" font-family="Times,serif" font-size="14.00">data = 10</text>
<polyline fill="none" stroke="black" points="965,-142.75 1122,-142.75 "/>
<text text-anchor="middle" x="1004" y="-127.55" font-family="Times,serif" font-size="14.00">next = 4</text>
<polyline fill="none" stroke="black" points="1043,-119.75 1043,-142.75 "/>
<text text-anchor="middle" x="1082.5" y="-127.55" font-family="Times,serif" font-size="14.00">prev = 0</text>
</g>
<!-- index_1&#45;&gt;index_0 -->
<g id="edge2" class="edge">
<title>index_1:p&#45;&gt;index_0:h</title>
<path fill="none" stroke="lightgrey" stroke-width="2" stroke-dasharray="5,2" d="M1082.5,-118.25C1082.5,-66.02 1017.21,-118 965,-119.25 828.71,-122.49 794.83,-131.25 658.5,-131.25 658.5,-131.25 658.5,-131.25 463.5,-131.25 330.74,-131.25 295.02,-131.25 167.18,-131.25"/>
<polygon fill="lightgrey" stroke="lightgrey" stroke-width="2" points="167,-127.75 157,-131.25 167,-134.75 167,-127.75"/>
</g>
<!-- index_4 -->
<g id="node3" class="node">
<title>index_4</title>
<path fill="lightgreen" stroke="black" d="M784,-162.75C784,-162.75 917,-162.75 917,-162.75 923,-162.75 929,-168.75 929,-174.75 929,-174.75 929,-219.75 929,-219.75 929,-225.75 923,-231.75 917,-231.75 917,-231.75 784,-231.75 784,-231.75 778,-231.75 772,-225.75 772,-219.75 772,-219.75 772,-174.75 772,-174.75 772,-168.75 778,-162.75 784,-162.75"/>
<text text-anchor="middle" x="850.5" y="-216.55" font-family="Times,serif" font-size="14.00">index_4</text>
<polyline fill="none" stroke="black" points="772,-208.75 929,-208.75 "/>
<text text-anchor="middle" x="850.5" y="-193.55" font-family="Times,serif" font-size="14.00">data = 40</text>
<polyline fill="none" stroke="black" points="772,-185.75 929,-185.75 "/>
<text text-anchor="middle" x="811" y="-170.55" font-family="Times,serif" font-size="14.00">next = 2</text>
<polyline fill="none" stroke="black" points="850,-162.75 850,-185.75 "/>
<text text-anchor="middle" x="889.5" y="-170.55" font-family="Times,serif" font-size="14.00">prev = 1</text>
</g>
<!-- index_1&#45;&gt;index_4 -->
<g id="edge1" class="edge">
<title>index_1:n&#45;&gt;index_4:h</title>
<path fill="none" stroke="magenta" stroke-width="2" d="M965,-131.25C926.5,-131.25 962.91,-203.71 939.04,-217.87"/>
<polygon fill="magenta" stroke="magenta" stroke-width="2" points="937.92,-214.54 929,-220.25 939.54,-221.35 937.92,-214.54"/>
</g>
<!-- index_4&#45;&gt;index_1 -->
<g id="edge8" class="edge">
<title>index_4:p&#45;&gt;index_1:h</title>
<path fill="none" stroke="lightgrey" stroke-width="2" stroke-dasharray="5,2" d="M929,-174.25C941.04,-174.25 946.24,-175.94 954.86,-176.78"/>
<polygon fill="lightgrey" stroke="lightgrey" stroke-width="2" points="954.85,-180.28 965,-177.25 955.17,-173.29 954.85,-180.28"/>
</g>
<!-- index_2 -->
<g id="node4" class="node">
<title>index_2</title>
<path fill="lightgreen" stroke="black" d="M591,-182.75C591,-182.75 724,-182.75 724,-182.75 730,-182.75 736,-188.75 736,-194.75 736,-194.75 736,-239.75 736,-239.75 736,-245.75 730,-251.75 724,-251.75 724,-251.75 591,-251.75 591,-251.75 585,-251.75 579,-245.75 579,-239.75 579,-239.75 579,-194.75 579,-194.75 579,-188.75 585,-182.75 591,-182.75"/>
<text text-anchor="middle" x="657.5" y="-236.55" font-family="Times,serif" font-size="14.00">index_2</text>
<polyline fill="none" stroke="black" points="579,-228.75 736,-228.75 "/>
<text text-anchor="middle" x="657.5" y="-213.55" font-family="Times,serif" font-size="14.00">data = 20</text>
<polyline fill="none" stroke="black" points="579,-205.75 736,-205.75 "/>
<text text-anchor="middle" x="618" y="-190.55" font-family="Times,serif" font-size="14.00">next = 5</text>
<polyline fill="none" stroke="black" points="657,-182.75 657,-205.75 "/>
<text text-anchor="middle" x="696.5" y="-190.55" font-family="Times,serif" font-size="14.00">prev = 4</text>
</g>
<!-- index_4&#45;&gt;index_2 -->
<g id="edge7" class="edge">
<title>index_4:n&#45;&gt;index_2:h</title>
<path fill="none" stroke="magenta" stroke-width="2" d="M772,-174.25C742.76,-174.25 762.71,-224.78 745.77,-237.41"/>
<polygon fill="magenta" stroke="magenta" stroke-width="2" points="744.63,-234.1 736,-240.25 746.58,-240.82 744.63,-234.1"/>
</g>
<!-- index_2&#45;&gt;index_4 -->
<g id="edge4" class="edge">
<title>index_2:p&#45;&gt;index_4:h</title>
<path fill="none" stroke="lightgrey" stroke-width="2" stroke-dasharray="5,2" d="M736,-194.25C751.57,-194.25 752.7,-210.44 762.17,-217.27"/>
<polygon fill="lightgrey" stroke="lightgrey" stroke-width="2" points="761.41,-220.69 772,-220.25 763.45,-213.99 761.41,-220.69"/>
</g>
<!-- index_5 -->
<g id="node5" class="node">
<title>index_5</title>
<path fill="lightgreen" stroke="black" d="M398,-159.75C398,-159.75 531,-159.75 531,-159.75 537,-159.75 543,-165.75 543,-171.75 543,-171.75 543,-216.75 543,-216.75 543,-222.75 537,-228.75 531,-228.75 531,-228.75 398,-228.75 398,-228.75 392,-228.75 386,-222.75 386,-216.75 386,-216.75 386,-171.75 386,-171.75 386,-165.75 392,-159.75 398,-159.75"/>
<text text-anchor="middle" x="464.5" y="-213.55" font-family="Times,serif" font-size="14.00">index_5</text>
<polyline fill="none" stroke="black" points="386,-205.75 543,-205.75 "/>
<text text-anchor="middle" x="464.5" y="-190.55" font-family="Times,serif" font-size="14.00">data = 50</text>
<polyline fill="none" stroke="black" points="386,-182.75 543,-182.75 "/>
<text text-anchor="middle" x="425" y="-167.55" font-family="Times,serif" font-size="14.00">next = 3</text>
<polyline fill="none" stroke="black" points="464,-159.75 464,-182.75 "/>
<text text-anchor="middle" x="503.5" y="-167.55" font-family="Times,serif" font-size="14.00">prev = 2</text>
</g>
<!-- index_2&#45;&gt;index_5 -->
<g id="edge3" class="edge">
<title>index_2:n&#45;&gt;index_5:h</title>
<path fill="none" stroke="magenta" stroke-width="2" d="M579,-194.25C564.17,-194.25 562.13,-208.29 552.89,-214.43"/>
<polygon fill="magenta" stroke="magenta" stroke-width="2" points="551.66,-211.14 543,-217.25 553.58,-217.87 551.66,-211.14"/>
</g>
<!-- index_5&#45;&gt;index_2 -->
<g id="edge10" class="edge">
<title>index_5:p&#45;&gt;index_2:h</title>
<path fill="none" stroke="lightgrey" stroke-width="2" stroke-dasharray="5,2" d="M543,-171.25C573.27,-171.25 551.65,-224.08 568.94,-237.28"/>
<polygon fill="lightgrey" stroke="lightgrey" stroke-width="2" points="568.42,-240.78 579,-240.25 570.4,-234.06 568.42,-240.78"/>
</g>
<!-- index_3 -->
<g id="node6" class="node">
<title>index_3</title>
<path fill="lightgreen" stroke="black" d="M205,-159.75C205,-159.75 338,-159.75 338,-159.75 344,-159.75 350,-165.75 350,-171.75 350,-171.75 350,-216.75 350,-216.75 350,-222.75 344,-228.75 338,-228.75 338,-228.75 205,-228.75 205,-228.75 199,-228.75 193,-222.75 193,-216.75 193,-216.75 193,-171.75 193,-171.75 193,-165.75 199,-159.75 205,-159.75"/>
<text text-anchor="middle" x="271.5" y="-213.55" font-family="Times,serif" font-size="14.00">index_3</text>
<polyline fill="none" stroke="black" points="193,-205.75 350,-205.75 "/>
<text text-anchor="middle" x="271.5" y="-190.55" font-family="Times,serif" font-size="14.00">data = 30</text>
<polyline fill="none" stroke="black" points="193,-182.75 350,-182.75 "/>
<text text-anchor="middle" x="232" y="-167.55" font-family="Times,serif" font-size="14.00">next = 0</text>
<polyline fill="none" stroke="black" points="271,-159.75 271,-182.75 "/>
<text text-anchor="middle" x="310.5" y="-167.55" font-family="Times,serif" font-size="14.00">prev = 5</text>
</g>
<!-- index_5&#45;&gt;index_3 -->
<g id="edge9" class="edge">
<title>index_5:n&#45;&gt;index_3:h</title>
<path fill="none" stroke="magenta" stroke-width="2" d="M386,-171.25C364.3,-171.25 371.86,-203.39 359.77,-213.94"/>
<polygon fill="magenta" stroke="magenta" stroke-width="2" points="358.35,-210.72 350,-217.25 360.59,-217.35 358.35,-210.72"/>
</g>
<!-- index_3&#45;&gt;index_0 -->
<g id="edge5" class="edge">
<title>index_3:n&#45;&gt;index_0:h</title>
<path fill="none" stroke="magenta" stroke-width="2" d="M193,-171.25C173.19,-171.25 177.91,-143.82 166.53,-134.39"/>
<polygon fill="magenta" stroke="magenta" stroke-width="2" points="167.59,-131.05 157,-131.25 165.4,-137.7 167.59,-131.05"/>
</g>
<!-- index_3&#45;&gt;index_5 -->
<g id="edge6" class="edge">
<title>index_3:p&#45;&gt;index_5:h</title>
<path fill="none" stroke="lightgrey" stroke-width="2" stroke-dasharray="5,2" d="M350,-171.25C371.7,-171.25 364.14,-203.39 376.23,-213.94"/>
<polygon fill="lightgrey" stroke="lightgrey" stroke-width="2" points="375.41,-217.35 386,-217.25 377.65,-210.72 375.41,-217.35"/>
</g>
<!-- index_6 -->
<g id="node7" class="node">
<title>index_6</title>
<path fill="lightcoral" stroke="black" d="M591,-33.75C591,-33.75 724,-33.75 724,-33.75 730,-33.75 736,-39.75 736,-45.75 736,-45.75 736,-90.75 736,-90.75 736,-96.75 730,-102.75 724,-102.75 724,-102.75 591,-102.75 591,-102.75 585,-102.75 579,-96.75 579,-90.75 579,-90.75 579,-45.75 579,-45.75 579,-39.75 585,-33.75 591,-33.75"/>
<text text-anchor="middle" x="657.5" y="-87.55" font-family="Times,serif" font-size="14.00">index_6</text>
<polyline fill="none" stroke="black" points="579,-79.75 736,-79.75 "/>
<text text-anchor="middle" x="657.5" y="-64.55" font-family="Times,serif" font-size="14.00">data = 12246509</text>
<polyline fill="none" stroke="black" points="579,-56.75 736,-56.75 "/>
<text text-anchor="middle" x="618" y="-41.55" font-family="Times,serif" font-size="14.00">next = 7</text>
<polyline fill="none" stroke="black" points="657,-33.75 657,-56.75 "/>
<text text-anchor="middle" x="696.5" y="-41.55" font-family="Times,serif" font-size="14.00">prev = 5</text>
</g>
<!-- index_6&#45;&gt;index_5 -->
<g id="edge12" class="edge">
<title>index_6:p&#45;&gt;index_5:h</title>
<path fill="none" stroke="lightgrey" stroke-width="2" stroke-dasharray="5,2" d="M696.5,-32.25C696.5,19.98 619.18,0.12 579,-33.25 517.78,-84.09 616.67,-205.66 553.08,-216.48"/>
<polygon fill="lightgrey" stroke="lightgrey" stroke-width="2" points="552.7,-212.99 543,-217.25 553.24,-219.97 552.7,-212.99"/>
</g>
<!-- index_7 -->
<g id="node8" class="node">
<title>index_7</title>
<path fill="lightcoral" stroke="black" d="M398,-10.75C398,-10.75 531,-10.75 531,-10.75 537,-10.75 543,-16.75 543,-22.75 543,-22.75 543,-67.75 543,-67.75 543,-73.75 537,-79.75 531,-79.75 531,-79.75 398,-79.75 398,-79.75 392,-79.75 386,-73.75 386,-67.75 386,-67.75 386,-22.75 386,-22.75 386,-16.75 392,-10.75 398,-10.75"/>
<text text-anchor="middle" x="464.5" y="-64.55" font-family="Times,serif" font-size="14.00">index_7</text>
<polyline fill="none" stroke="black" points="386,-56.75 543,-56.75 "/>
<text text-anchor="middle" x="464.5" y="-41.55" font-family="Times,serif" font-size="14.00">data = 12246509</text>
<polyline fill="none" stroke="black" points="386,-33.75 543,-33.75 "/>
<text text-anchor="middle" x="425" y="-18.55" font-family="Times,serif" font-size="14.00">next = 8</text>
<polyline fill="none" stroke="black" points="464,-10.75 464,-33.75 "/>
<text text-anchor="middle" x="503.5" y="-18.55" font-family="Times,serif" font-size="14.00">prev = 6</text>
</g>
<!-- index_6&#45;&gt;index_7 -->
<g id="edge11" class="edge">
<title>index_6:n&#45;&gt;index_7:h</title>
<path fill="none" stroke="magenta" stroke-width="2" d="M579,-45.25C564.17,-45.25 562.13,-59.29 552.89,-65.43"/>
<polygon fill="magenta" stroke="magenta" stroke-width="2" points="551.66,-62.14 543,-68.25 553.58,-68.87 551.66,-62.14"/>
</g>
<!-- index_7&#45;&gt;index_6 -->
<g id="edge14" class="edge">
<title>index_7:p&#45;&gt;index_6:h</title>
<path fill="none" stroke="lightgrey" stroke-width="2" stroke-dasharray="5,2" d="M543,-22.25C573.27,-22.25 551.65,-75.08 568.94,-88.28"/>
<polygon fill="lightgrey" stroke="lightgrey" stroke-width="2" points="568.42,-91.78 579,-91.25 570.4,-85.06 568.42,-91.78"/>
</g>
<!-- index_8 -->
<g id="node9" class="node">
<title>index_8</title>
<path fill="lightcoral" stroke="black" d="M205,-33.75C205,-33.75 338,-33.75 338,-33.75 344,-33.75 350,-39.75 350,-45.75 350,-45.75 350,-90.75 350,-90.75 350,-96.75 344,-102.75 338,-102.75 338,-102.75 205,-102.75 205,-102.75 199,-102.75 193,-96.75 193,-90.75 193,-90.75 193,-45.75 193,-45.75 193,-39.75 199,-33.75 205,-33.75"/>
<text text-anchor="middle" x="271.5" y="-87.55" font-family="Times,serif" font-size="14.00">index_8</text>
<polyline fill="none" stroke="black" points="193,-79.75 350,-79.75 "/>
<text text-anchor="middle" x="271.5" y="-64.55" font-family="Times,serif" font-size="14.00">data = 12246509</text>
<polyline fill="none" stroke="black" points="193,-56.75 350,-56.75 "/>
<text text-anchor="middle" x="232" y="-41.55" font-family="Times,serif" font-size="14.00">next = 0</text>
<polyline fill="none" stroke="black" points="271,-33.75 271,-56.75 "/>
<text text-anchor="middle" x="310.5" y="-41.55" font-family="Times,serif" font-size="14.00">prev = 7</text>
</g>
<!-- index_7&#45;&gt;index_8 -->
<g id="edge13" class="edge">
<title>index_7:n&#45;&gt;index_8:h</title>
<path fill="none" stroke="magenta" stroke-width="2" d="M386,-22.25C355.73,-22.25 377.35,-75.08 360.06,-88.28"/>
<polygon fill="magenta" stroke="magenta" stroke-width="2" points="358.6,-85.06 350,-91.25 360.58,-91.78 358.6,-85.06"/>
</g>
<!-- index_8&#45;&gt;index_0 -->
<g id="edge15" class="edge">
<title>index_8:n&#45;&gt;index_0:h</title>
<path fill="none" stroke="magenta" stroke-width="2" d="M193,-45.25C155.61,-45.25 190.12,-115.27 166.78,-128.95"/>
<polygon fill="magenta" stroke="magenta" stroke-width="2" points="165.93,-125.55 157,-131.25 167.54,-132.36 165.93,-125.55"/>
</g>
<!-- index_8&#45;&gt;index_7 -->
<g id="edge16" class="edge">
<title>index_8:p&#45;&gt;index_7:h</title>
<path fill="none" stroke="lightgrey" stroke-width="2" stroke-dasharray="5,2" d="M350,-45.25C364.83,-45.25 366.87,-59.29 376.11,-65.43"/>
<polygon fill="lightgrey" stroke="lightgrey" stroke-width="2" points="375.42,-68.87 386,-68.25 377.34,-62.14 375.42,-68.87"/>
</g>
</g>
</svg>
